<svg width="477" height="182" viewBox="0 0 477 182" fill="none" xmlns="http://www.w3.org/2000/svg">
<ellipse cx="24.5696" cy="86.6733" rx="24.5696" ry="86.6733" transform="matrix(0.961534 -0.274685 0.759302 0.650738 75.1641 35.7566)" fill="#FFB6B9"/>
<ellipse cx="23.8914" cy="90.9806" rx="23.8914" ry="90.9806" transform="matrix(0.733937 -0.432789 1.10824 0.460129 20.4922 74.7916)" fill="#FFB6B9"/>
<ellipse cx="23.8914" cy="90.9806" rx="23.8914" ry="90.9806" transform="matrix(-1.12446 0.0981054 -0.251218 -0.704959 266.535 145.837)" fill="#FFB6B9"/>
<ellipse cx="24.3966" cy="87.8038" rx="24.3966" ry="87.8038" transform="matrix(0.856559 -0.355633 0.963572 0.568201 41.1934 52.7178)" fill="#FFB6B9"/>
<ellipse cx="24.3966" cy="87.8038" rx="24.3966" ry="87.8038" transform="matrix(-1.05073 0.189228 -0.512706 -0.697001 258.967 140.964)" fill="#FFB6B9"/>
<ellipse cx="24.6707" cy="88.6853" rx="24.6707" ry="88.6853" transform="matrix(0.963152 0.268958 -0.780535 0.625112 351.104 24.8893)" fill="#FFB6B9"/>
<ellipse cx="24.0201" cy="92.7501" rx="24.0201" ry="92.7501" transform="matrix(1.13386 0.0959809 -0.278543 0.679729 253.951 21.0403)" fill="#FFB6B9"/>
<ellipse cx="24.0201" cy="92.75" rx="24.0201" ry="92.75" transform="matrix(-0.725302 -0.423185 1.1241 -0.443611 246.926 159.598)" fill="#FFB6B9"/>
<ellipse cx="24.5046" cy="89.7507" rx="24.5046" ry="89.7507" transform="matrix(1.05661 0.185246 -0.53773 0.670251 303.873 18.9155)" fill="#FFB6B9"/>
<ellipse cx="24.5046" cy="89.7507" rx="24.5046" ry="89.7507" transform="matrix(-0.853283 -0.348087 0.981375 -0.546364 251.979 154.015)" fill="#FFB6B9"/>
<ellipse cx="27.4376" cy="64.805" rx="27.4376" ry="64.805" transform="matrix(1 1.58846e-09 -0.0407085 0.999171 210.236 2.15881)" fill="#FFB6B9"/>
<ellipse cx="26.1889" cy="75.8853" rx="26.1889" ry="75.8853" transform="matrix(0.991637 -0.175261 0.564005 0.801819 122.121 22.3208)" fill="#FFB6B9"/>
<ellipse cx="26.1889" cy="75.8853" rx="26.1889" ry="75.8853" transform="matrix(-0.977356 -0.175261 0.629341 -0.801819 259.271 144.014)" fill="#FFB6B9"/>
<ellipse cx="27.1212" cy="67.8345" rx="27.1212" ry="67.8345" transform="matrix(0.999796 -0.0859236 0.300593 0.940045 163.156 8.40784)" fill="#FFB6B9"/>
<ellipse cx="27.1212" cy="67.8345" rx="27.1212" ry="67.8345" transform="matrix(-0.992795 -0.0859236 0.377192 -0.940045 257.875 137.956)" fill="#FFB6B9"/>
</svg>
