<svg width="100" height="100" viewBox="0 0 100 100" fill="none" xmlns="http://www.w3.org/2000/svg">
<circle cx="50" cy="50" r="50" fill="#FDFDD9"/>
<path d="M54.6563 81.7932C53.3159 82.0534 52.035 82.414 50.7327 82.5132C48.7479 82.6643 46.7534 82.8441 44.7544 82.6632C43.3987 82.5405 42.0267 82.5176 40.6883 82.2995C38.7919 81.9904 36.9151 81.5615 35.1037 80.9094C28.5527 78.5513 23.2227 74.6473 19.2267 69.1056C17.0683 66.1124 15.4818 62.8566 14.3883 59.3376C13.106 55.2106 12.8117 51.0141 13.1034 46.7798C13.3166 43.685 14.1798 40.6841 15.3633 37.7905C17.6979 32.0824 21.5119 27.4448 26.4823 23.6758C29.8047 21.1565 33.5642 19.441 37.5735 18.1863C41.6533 16.9096 45.8123 16.807 50.0276 17.2093C51.7427 17.3729 53.4565 17.5773 55.1107 18.0208C57.5533 18.6756 59.983 19.4052 62.2057 20.6237C62.9712 21.0433 63.5277 21.6769 63.4284 22.597C63.3391 23.4241 62.8348 24.0047 62.0424 24.346C61.5674 24.5506 61.102 24.4892 60.6305 24.3327C59.221 23.865 57.92 23.1449 56.5011 22.6969C53.7298 21.822 50.899 21.2854 47.978 21.1956C44.243 21.0808 40.5907 21.4979 37.0793 22.776C33.6112 24.0385 30.4538 25.8174 27.649 28.1713C23.4025 31.7352 20.4766 36.1202 18.7587 41.2857C17.6059 44.7519 17.0657 48.2945 17.399 51.915C18.154 60.1147 21.4755 67.1126 28.1863 72.3727C31.2752 74.7938 34.7728 76.5575 38.6608 77.5295C41.3077 78.1912 43.9869 78.7423 46.7267 78.6106C52.7362 78.3216 58.3154 76.7787 63.2151 73.2242C68.5426 69.3593 72.0087 64.329 73.7647 58.1533C74.2379 56.4888 74.5257 54.7943 74.8032 53.0947C74.8565 52.7686 74.7564 52.633 74.4265 52.633C74.0691 52.633 73.7115 52.6366 73.3542 52.629C66.2704 52.4776 59.1858 52.44 52.1007 52.489C51.3146 52.4944 50.6474 52.2784 50.1527 51.6773C49.2472 50.577 49.8725 48.872 51.3 48.5183C51.7343 48.4108 52.1776 48.4149 52.6171 48.427C60.7735 48.6518 68.9318 48.5086 77.089 48.5456C78.6387 48.5526 79.2102 49.0974 79.2027 50.5986C79.1923 52.6881 78.8861 54.7425 78.5137 56.8001C77.6643 61.4935 75.756 65.745 72.9227 69.6158C68.9719 75.0134 63.7207 78.7806 57.3005 81.0387C56.4551 81.336 55.5719 81.5331 54.6563 81.7932Z" fill="#555555"/>
<path d="M77.7602 29.6629C78.7193 30.4392 79.7058 31.0052 80.8193 31.1855C81.3977 31.2792 81.9764 31.4327 82.4944 31.8259C83.1591 32.3306 83.169 33.2441 82.5207 33.8C82.0187 34.2305 81.4354 34.2446 80.8738 34.3753C78.7916 34.86 77.1455 36.1841 75.8849 38.4086C74.8554 40.2255 74.5752 42.3563 74.1174 44.4237C74.0566 44.6981 74.0262 44.9839 73.9622 45.2568C73.8733 45.6352 73.6921 45.9176 73.3715 45.9762C73.0214 46.0401 72.6881 45.9969 72.4617 45.5773C72.1297 44.962 71.916 44.2882 71.8151 43.5461C71.5652 41.7084 71.2822 39.8888 70.3006 38.4005C69.3678 36.9862 68.4527 35.5429 67.0318 34.9036C66.2846 34.5674 65.5089 34.3376 64.7574 34.0159C64.3386 33.8366 63.935 33.5877 63.5396 33.3318C63.2192 33.1245 62.9903 32.7608 63.0003 32.2943C63.0097 31.8561 63.2812 31.582 63.5746 31.407C64.1348 31.073 64.7583 31.0264 65.3421 30.7951C67.4058 29.9776 69.3336 28.8968 70.59 26.4527C71.1167 25.4281 71.3506 24.2582 71.6698 23.1268C71.9557 22.1135 71.8928 20.9937 72.2688 20.0121C72.3958 19.6805 72.5099 19.3488 72.7781 19.144C73.0719 18.9196 73.3282 18.9565 73.5566 19.2619C73.8561 19.6625 74.0291 20.1433 74.0526 20.7053C74.1844 23.8634 75.1497 26.5399 76.882 28.7623C77.1389 29.0919 77.4505 29.3507 77.7602 29.6629ZM75.3305 30.3169C74.4135 29.0721 73.6038 27.7266 73.0128 26.1097C72.2565 27.3863 71.8532 28.8682 71.0083 29.9686C70.1545 31.0806 69.0186 31.6647 68.0316 32.6032C70.1628 34.2876 72.0978 36.1703 72.9867 39.4441C74.283 36.582 75.783 34.2162 78.1227 32.8275C77.0912 32.0801 76.1426 31.3836 75.3305 30.3169Z" fill="#555555"/>
</svg>
