<svg width="300" height="118" viewBox="0 0 300 118" fill="none" xmlns="http://www.w3.org/2000/svg">
<path d="M88.5354 5.47337C150.871 -4.09413 211.42 -2.97741 269.093 23.9523C277.407 27.8345 285.204 34.04 291.485 40.8007C303.133 53.3391 303.011 68.5066 290.005 79.5385C279.311 88.6096 266.824 96.3962 253.903 101.832C229.913 111.924 204.238 115.855 178.256 117.661C171.924 118.101 168.146 116.51 165.213 110.684C161.004 102.324 155.854 94.4381 150.375 85.1037C145.055 94.3165 140.063 102.198 135.869 110.483C132.871 116.403 129.399 118.4 122.36 117.83C93.3348 115.479 64.8878 110.74 38.1817 98.789C29.1205 94.7341 20.3323 89.3668 12.6404 83.1005C-3.49842 69.9526 -4.47279 50.8455 11.3892 37.5373C21.6677 28.9137 34.043 22.0834 46.5125 16.9712C59.6157 11.5991 73.9516 9.23387 88.5354 5.47337Z" fill="#69C377"/>
</svg>
