<svg width="40" height="40" viewBox="0 0 40 40" fill="none" xmlns="http://www.w3.org/2000/svg">
<rect width="40" height="40" rx="20" fill="#BBE5FF"/>
<path d="M22.8558 26.21C22.8958 25.63 22.9258 25.12 22.9458 24.68C22.9658 24.22 22.9758 23.77 22.9758 23.33C22.9758 22.89 22.9658 22.46 22.9458 22.04C22.9258 21.62 22.8858 21.2 22.8258 20.78L20.1558 19.97L20.4858 18.86C21.1658 18.9 21.9058 18.93 22.7058 18.95C23.5058 18.97 24.3458 18.98 25.2258 18.98C25.9858 18.98 26.7158 18.97 27.4158 18.95C28.1358 18.93 28.8558 18.9 29.5758 18.86L29.9658 19.97L27.3258 20.78C27.3058 21.26 27.2858 21.75 27.2658 22.25C27.2458 22.73 27.2458 23.23 27.2658 23.75C27.2658 24.35 27.2858 24.98 27.3258 25.64C27.3858 26.28 27.4258 26.98 27.4458 27.74C26.2858 28.1 25.1158 28.44 23.9358 28.76C22.7558 29.06 21.3558 29.21 19.7358 29.21C17.9358 29.21 16.3958 28.93 15.1158 28.37C13.8558 27.79 12.8358 27.03 12.0558 26.09C11.2758 25.13 10.6958 24.06 10.3158 22.88C9.95578 21.68 9.77578 20.45 9.77578 19.19C9.77578 17.87 9.97578 16.6 10.3758 15.38C10.7758 14.14 11.3858 13.03 12.2058 12.05C13.0258 11.07 14.0758 10.3 15.3558 9.74C16.6558 9.16 18.1858 8.87 19.9458 8.87C21.2058 8.87 22.4158 8.98 23.5758 9.2C24.7558 9.4 25.9458 9.78 27.1458 10.34C26.9458 11.26 26.7558 12.17 26.5758 13.07C26.3958 13.97 26.2358 14.89 26.0958 15.83H24.0858L23.4858 11.87C22.5258 11.47 21.6258 11.19 20.7858 11.03C19.9458 10.87 18.9458 10.79 17.7858 10.79C16.6858 11.59 15.8758 12.66 15.3558 14C14.8358 15.34 14.5758 16.89 14.5758 18.65C14.5758 19.73 14.6758 20.79 14.8758 21.83C15.0958 22.87 15.4158 23.81 15.8358 24.65C16.2758 25.49 16.8258 26.16 17.4858 26.66C18.1658 27.16 18.9658 27.41 19.8858 27.41C20.4858 27.41 21.0158 27.31 21.4758 27.11C21.9358 26.89 22.3958 26.59 22.8558 26.21Z" fill="white"/>
</svg>
