<svg width="1280" height="759" viewBox="0 0 1280 759" fill="none" xmlns="http://www.w3.org/2000/svg">
<path d="M1301 832.134C1279.62 832.316 1258.24 831.639 1236.85 831.47C1194.17 831.135 1154.9 842.286 1118.54 861.604C1094.82 874.21 1071.39 887.395 1048.85 901.618C1031.63 912.48 1015.93 925.294 999.694 937.387C971.391 958.466 944.033 980.725 907.978 991.285C895.065 995.067 882.526 994.238 869.851 991.127C839.532 983.684 812.175 970.773 785.899 955.498C767.127 944.586 747.81 934.334 728.129 924.797C697.775 910.089 664.879 904.582 630.479 903.655C585.74 902.449 543.048 910.418 501.058 923.187C489.814 926.607 478.22 929.101 466.757 932.027C459.809 917.925 461.384 904.302 466.167 890.625C452.042 910.482 456.882 957.941 495.719 988.381C478.594 994.217 461.828 1000.76 444.304 1004.11C427.013 1007.41 408.956 1007.49 390.91 1009C390.584 1009.01 389.933 1008.97 390.006 1008.36C390.126 1007.08 390.101 1006.4 390.231 1005.74C399.392 959.648 412.701 914.548 430.482 870.511C435.714 857.555 440.638 844.499 446.012 831.222C446.594 830.236 446.867 829.518 447.42 828.607C448.053 828.126 448.329 827.788 448.724 827.139C449.222 826.55 449.589 826.295 450.308 826.399C451.399 826.923 452.199 827.16 453 827.397C453.451 827.585 453.901 827.773 454.44 828.762C455.527 830.619 456.526 831.674 457.524 832.73C457.524 832.73 457.545 832.746 457.531 833.21C458.463 834.73 459.409 835.787 460.355 836.843C460.355 836.843 460.462 836.832 460.521 837.342C462.496 840.192 464.414 842.533 466.331 844.874C466.331 844.874 466.45 844.873 466.44 845.367C467.36 846.884 468.289 847.907 469.218 848.929C469.218 848.929 469.377 848.877 469.419 849.315C469.871 850.356 470.28 850.959 470.689 851.562C470.689 851.562 470.888 851.536 470.929 851.996C471.414 853.05 471.858 853.644 472.302 854.238C472.302 854.238 472.431 854.232 472.431 854.785C473.629 857.982 474.589 860.748 476.158 863.201C476.693 864.037 478.758 864.085 480.125 864.493C488.657 856.196 496.671 847.401 505.852 839.729C517.244 830.211 529.312 821.287 541.619 812.72C555.8 802.847 571.055 794.175 584.804 783.866C589.682 780.208 595.549 778.21 600.124 774.146C605.08 769.744 611.402 766.582 617.121 762.87C639.43 748.386 662.316 734.705 687.46 724.452C702.251 718.421 717.377 713.274 734.135 713.484C750.224 713.685 766.455 712.186 782.372 713.646C795.016 714.806 807.471 718.788 819.669 722.435C841.02 728.818 862.145 735.819 883.296 742.732C895.983 746.879 908.272 752.159 922.129 752.604C930.783 752.881 939.468 753.913 948.076 753.514C974.585 752.286 999.391 744.403 1024.53 737.537C1044.37 732.12 1064.78 728.348 1085.01 724.118C1106.52 719.618 1128.62 718.294 1150.34 720.282C1182.24 723.2 1212.92 731.127 1242.43 742.923C1262.2 750.826 1281.37 759.589 1300.56 769.449C1301 790.309 1301 810.907 1301 832.134ZM467.491 885.39C467.405 885.726 467.318 886.062 467.231 886.398C467.491 885.963 467.751 885.528 468.495 884.775C468.586 884.441 468.676 884.106 468.766 883.772C468.502 884.203 468.238 884.635 467.491 885.39Z" fill="#8BAB6F"/>
<path d="M420.605 762.232C421.333 762.815 422.06 763.398 422.971 764.68C423.92 765.867 424.687 766.354 425.453 766.841C425.453 766.841 425.387 766.875 425.543 767.192C426.731 768.095 427.764 768.682 428.797 769.269C428.797 769.269 428.881 769.271 428.96 769.689C430.136 770.606 431.234 771.105 432.331 771.603C432.683 771.8 433.035 771.997 433.555 772.867C435.653 775.224 437.582 776.908 439.037 778.576C437.613 778.357 436.628 777.884 435.722 778.006C433.605 778.29 431.525 778.86 429.431 779.315C430.06 781.396 430.5 783.562 431.376 785.533C432.142 787.256 433.131 789.058 434.5 790.294C436.659 792.244 439.689 795.538 441.509 795.06C444.966 794.152 447.469 793.319 449.325 796.954C450.771 799.786 453.805 804.301 452.888 805.427C448.206 811.181 452.504 814.09 455.532 817.654C455.647 817.79 455.293 818.323 455.369 818.127C452.946 818.973 450.89 819.691 447.359 820.924C456.325 825.052 459.465 829.861 458.627 836.758C454.961 832.269 453.781 834.291 451.518 838.183C448.561 843.27 449.526 847.651 450.723 852.436C449.172 852.735 447.35 852.725 447.076 853.371C444.364 859.767 437.661 858.187 432.962 860.679C433.874 864.741 432.526 865.69 428.161 866.054C425.357 866.289 422.81 870.244 420.262 872.652C418.862 873.974 417.546 876.839 416.462 876.711C414.693 876.503 412.837 874.656 411.595 873.052C410.51 871.651 410.222 869.633 409.102 866.578C407.617 869.193 407.035 870.36 406.319 871.438C405.568 872.57 404.883 873.903 403.815 874.623C402.62 875.429 401.027 875.647 399.608 876.12C399.33 874.265 398.823 872.403 398.875 870.558C398.9 869.672 399.983 868.816 400.664 867.835C395.313 866.15 394.241 866.945 392.535 873.394C391.011 879.156 388.887 879.706 379.722 876.993C374.979 875.589 376.005 872.596 377.103 869.204C379.176 869.204 380.952 869.204 384.05 869.204C382.423 867.408 381.173 865.646 380.902 865.786C375.509 868.567 367.789 863.511 363.884 871.65C360.517 866.712 357.597 867.691 353.983 870.803C350.662 873.663 346.723 876.768 343.688 869.67C342.875 867.768 339.49 866.301 337.081 865.916C334.065 865.434 330.836 866.504 327.702 866.482C324.234 866.457 320.299 864.765 317.401 865.91C311.475 868.251 305.46 865.869 301.781 863.728C295.973 860.348 290.324 859.095 284.102 858.331C282.389 858.12 279.912 857.889 279.208 856.772C275.641 851.113 268.719 859.589 265.974 852.844C264.443 854.54 263.309 855.795 263.164 855.955C259.602 855.955 256.393 854.974 255.133 856.126C249.827 860.978 245.499 858.959 240.417 855.808C238.245 854.461 234.86 855.004 232.018 854.846C231.131 854.797 230.074 855.683 229.336 855.432C223.234 853.349 217.188 851.1 210.266 848.591C209.369 849.016 206.768 851.321 205.362 850.74C196.231 846.966 185.452 849.165 177.13 842.868C175.006 841.261 173.413 838.328 171.112 837.697C164.77 835.959 162.333 830.279 158.983 826.005C154.395 820.149 152.242 819.187 146.166 824.068C144.209 821.418 142.413 819.108 140.901 816.625C130.273 799.171 120.516 781.119 108.919 764.339C92.68 740.843 71.7236 721.526 49.5967 703.65C34.5563 691.499 17.6595 682.185 0 674.307C0 628.188 3.11226e-08 582.07 2.37487e-06 535.403C7.2034 534.042 14.5775 533.942 21.5739 532.267C35.2174 528.998 48.4256 531.526 61.7855 533.623C75.7212 535.81 88.913 540.173 101.667 546.113C104.72 547.535 108.617 547.457 111.312 549.275C117.197 553.243 122.581 557.961 128.132 562.419C146.845 577.448 161.678 596.293 178.41 613.269C188.807 623.816 199.797 633.788 212.455 642.103C226.094 651.062 240.453 657.791 255.523 663.587C268.457 668.561 281.9 671.412 295.231 674.913C313.094 679.604 330.822 684.669 347.83 692.571C366.927 701.445 380.782 715.228 392.676 731.776C393.211 732.52 393.424 733.496 393.91 735.065C394.368 735.968 394.703 736.169 395.039 736.371C395.328 736.61 395.616 736.849 396.033 737.772C397.331 739.715 398.501 740.974 399.671 742.234C399.671 742.234 399.613 742.275 399.758 742.514C400.232 742.971 400.56 743.188 400.888 743.406C401.589 743.932 402.29 744.458 403.116 745.682C403.946 746.975 404.65 747.57 405.354 748.166C408.418 751.08 411.481 753.995 414.732 757.683C416.814 759.716 418.709 760.974 420.605 762.232Z" fill="#8EAD71"/>
<path d="M0 672.833C17.6759 680.203 34.5883 689.57 49.6425 701.789C71.7899 719.766 92.7657 739.193 109.019 762.821C120.628 779.696 130.393 797.849 141.031 815.402C142.545 817.899 144.342 820.222 146.353 823.223C147.058 824.376 147.417 824.933 147.948 825.851C150.729 829.52 153.337 832.829 156.016 836.521C157.594 838.605 159.102 840.305 160.678 842.342C161.121 843.23 161.495 843.783 162.063 844.679C173.311 856.318 186.861 863.275 201.965 868.18C202.828 868.64 203.459 868.853 204.48 869.245C206.546 869.713 208.222 870.002 210.137 870.543C211.02 871.013 211.665 871.232 212.705 871.632C215.958 872.485 218.814 873.156 221.905 874.073C222.768 874.53 223.399 874.741 224.417 874.965C225.324 874.988 225.842 874.999 226.697 875.286C228.777 875.769 230.52 875.975 232.655 876.359C235.526 877.186 238.005 877.833 240.91 878.507C242.996 878.913 244.655 879.292 246.702 879.683C247.606 879.708 248.123 879.72 248.979 880.005C251.06 880.481 252.801 880.683 254.943 881.069C258.583 881.926 261.82 882.598 265.372 883.537C267.83 884.389 269.974 884.974 272.557 885.639C277.794 887.237 282.592 888.755 287.681 890.285C287.972 890.297 288.554 890.311 288.942 890.492C292.975 891.733 296.62 892.793 300.497 894.102C301.358 894.568 301.989 894.784 303.002 895.18C314.704 900.668 326.373 905.35 337.246 911.462C347.867 917.433 358.221 924.181 367.705 931.825C379.95 941.693 390.723 953.413 403.043 963.172C414.322 972.105 426.782 979.542 438.801 987.517C441.481 989.296 444.35 990.012 446.133 985.634C447.031 984.731 447.827 984.003 447.974 983.16C449.606 973.834 450.946 964.45 452.845 955.181C453.267 953.123 455.234 950.398 457.064 949.823C460.96 948.597 461.197 946.652 460.431 943.239C459.013 936.926 460.904 930.554 465.011 925.723C465.449 925.208 465.794 923.874 465.514 923.594C461.867 919.951 463.074 915.666 463.972 911.553C464.586 908.739 465.844 906.07 466.737 903.311C467.384 901.31 468.179 899.299 468.413 897.235C468.705 894.655 467.944 891.871 468.588 889.428C471.325 879.044 474.413 868.754 477.376 858.148C477.38 857.866 477.4 857.302 477.772 857.209C478.674 855.213 479.203 853.309 479.776 851.066C480.17 850.165 480.521 849.603 481.298 848.972C486.242 846.865 486.528 843.589 484.463 839.24C484.878 837.942 485.244 837.015 485.995 835.988C487.285 833.199 488.191 830.51 489.167 827.391C491.546 820.969 493.853 814.977 496.578 808.907C497.891 806.918 498.786 805.008 499.955 802.806C501.97 798.793 503.711 795.072 505.725 791.108C506.219 790.177 506.437 789.49 506.715 788.419C507.51 786.389 508.246 784.743 509.255 782.848C509.737 781.904 509.945 781.207 510.215 780.129C511.025 778.11 511.773 776.473 512.791 774.588C513.264 773.642 513.464 772.945 513.809 771.848C522.075 750.581 530.198 729.713 538.593 708.593C539.063 707.638 539.26 706.934 539.613 705.835C541.641 700.284 543.514 695.13 545.654 689.724C546.113 688.772 546.304 688.073 546.641 686.978C549.793 677.477 552.797 668.371 555.98 659.183C556.456 658.765 556.414 658.449 556.16 657.748C557.713 653.305 559.141 649.268 560.862 644.933C561.346 643.553 561.535 642.469 561.803 640.953C567.024 621.653 572.168 602.786 577.755 584C580.667 584.306 583.314 585.214 585.565 584.615C590.722 583.242 594.075 583.866 593.872 590.137C595.493 589.863 596.549 589.684 598.588 589.339C598.588 593.547 598.741 597.338 598.554 601.113C598.229 607.702 603.041 612.346 609 611.521C602.231 634.845 595.518 657.692 588.55 680.783C588.103 681.698 587.91 682.369 587.689 683.48C580.981 702.835 574.3 721.751 567.392 740.863C566.998 741.424 566.831 741.789 566.633 742.587C563.064 752.83 559.526 762.64 555.729 772.694C555.271 773.611 555.072 774.285 554.807 775.386C553.194 780.195 551.647 784.577 549.844 789.204C549.397 790.122 549.205 790.794 548.937 791.895C544.279 804.576 539.698 816.827 534.789 829.329C534.237 830.636 534.012 831.693 533.775 833.164C533.746 835.54 533.728 837.503 533.701 839.813C533.686 840.392 533.68 840.623 533.674 840.855C533.338 841.015 533.05 841.239 532.418 841.775C531.822 842.42 531.62 842.818 531.418 843.215C531.203 843.846 530.989 844.477 530.1 845.306C526.997 843.403 524.689 841.133 522.089 839.276C520.824 838.372 518.939 837.758 517.482 837.982C516.835 838.081 516.515 840.566 516.11 841.986C515.129 845.431 515.219 850.081 512.973 852.045C509.983 854.66 509.309 856.933 509.398 860.46C509.44 862.137 508.465 864.301 507.223 865.452C504.887 867.615 502.268 875.388 504.373 877.551C508.455 881.747 505.239 884.839 502.456 885.752C496.547 887.69 496.896 893.757 493.493 897.182C492.915 897.763 492.84 899.845 493.38 900.397C498.318 905.444 496.441 910.254 493.021 914.788C493.981 916.589 495.441 918.067 495.446 919.551C495.475 927.067 494.11 934.149 489.199 940.346C483.659 947.338 483.875 947.503 476.864 942.529C476.715 942.423 476.215 942.817 475.529 943.145C475.935 944.341 476.267 945.602 476.782 946.781C479.105 952.108 481.393 957.248 474.17 960.985C472.291 961.957 471.107 964.288 469.255 966.392C477.945 969.822 478.343 976.359 477.743 984.133C477.261 990.374 475.291 998.076 484.064 1001.28C484.298 1001.36 484.342 1001.97 484.478 1002.84C483.97 1008.47 483.459 1013.61 482.519 1018.75C479.774 1019.59 477.458 1020.43 475.142 1021.27C475.207 1021.9 475.273 1022.54 475.338 1023.17C477.539 1024.05 479.741 1024.92 481.959 1026.3C481.591 1032.46 481.008 1038.11 480.867 1043.77C480.605 1054.29 480.6 1064.82 480.125 1075.52C480.038 1078.31 480.315 1080.93 480.647 1084.08C480.772 1087.4 480.843 1090.2 480.913 1093C473.851 1093 466.788 1093 459.176 1092.5C458.794 1090.07 459.234 1088.11 459.051 1086.21C458.866 1084.28 458.064 1082.42 457.532 1080.53C455.901 1081.62 453.648 1082.34 452.772 1083.87C451.167 1086.66 450.375 1089.93 449.243 1093C447.232 1093 445.222 1093 442.705 1092.46C442.217 1087.55 442.235 1083.19 442.542 1078.45C442.643 1068.12 442.456 1058.19 442.254 1047.72C442.277 1044.39 442.316 1041.59 442.765 1038.62C443.235 1034.64 443.295 1030.82 443.351 1026.5C443.428 1024.37 443.508 1022.74 443.957 1020.97C444.392 1018.96 444.457 1017.08 444.518 1014.71C444.558 1012.59 444.602 1010.96 445.054 1009.18C445.511 1005.96 445.56 1002.9 445.229 999.572C442.143 999.214 439.416 998.854 436.733 999.062C414.011 1000.82 391.326 1003.45 368.573 1004.34C335.398 1005.65 302.196 1004.36 269.436 998.609C241.248 993.66 213.211 987.741 185.267 981.526C173.346 978.875 161.83 974.382 149.543 970.543C148.865 972.485 148.078 974.224 147.65 976.048C142.549 997.779 136.882 1019.4 132.638 1041.3C129.333 1058.35 127.817 1075.75 125.507 1093C113.362 1093 101.216 1093 88.5264 1092.47C88.356 1087.65 88.5798 1083.35 89.1304 1079.08C92.0356 1056.58 94.3138 1033.96 98.2048 1011.63C101.359 993.521 106.618 975.794 110.571 957.816C111.069 955.548 110.082 951.836 108.415 950.426C104.579 947.18 99.9779 944.794 95.5116 942.388C94.2961 941.733 92.4565 942.247 90.8239 942.243C90.7446 942.262 90.5871 942.22 90.7578 941.763C84.7892 936.338 78.7598 931.222 72.4449 926.491C70.4944 925.029 67.7661 924.616 65.1221 923.525C64.5936 922.963 64.337 922.598 64.4055 922.056C60.3598 917.705 56.0318 913.483 51.5542 909.427C51.0858 909.003 49.7327 909.565 48.5304 909.481C47.9885 908.972 47.7063 908.651 47.5283 907.893C46.4822 906.617 45.3318 905.777 43.9197 904.762C43.3863 904.267 43.1146 903.948 42.8115 903.378C42.6211 902.799 42.361 902.607 41.9228 902.508C41.8455 902.464 41.7516 902.312 41.6913 902.073C41.4699 901.52 41.2159 901.332 40.514 901.097C38.6494 899.456 37.14 897.987 35.8913 896.225C36.5453 892.327 35.7827 890.044 31.1697 891.553C22.2587 879.984 13.7248 868.621 4.96927 857.432C3.93571 856.111 1.68599 855.751 4.75414e-06 854.946C6.23027e-08 794.426 0 733.906 0 672.833ZM473.003 903.742C474.341 903.171 475.679 902.599 477.017 902.028C476.519 901.333 476.021 900.638 475.523 899.943C474.489 901.021 473.454 902.098 473.003 903.742ZM471.054 975.454C471.623 976.798 472.191 978.142 472.76 979.486C473.451 978.986 474.143 978.486 474.835 977.986C473.762 976.946 472.69 975.907 471.054 975.454ZM496.703 878.386C497.242 879.364 497.781 880.342 498.319 881.32C498.688 880.95 499.413 880.303 499.373 880.251C498.727 879.413 497.983 878.65 496.703 878.386ZM472.191 990.193C472.492 990.406 472.793 990.618 473.094 990.83C472.901 990.515 472.708 990.201 472.191 990.193Z" fill="#769D67"/>
<path d="M1011.51 129.254C1016.93 134.796 1018.98 141.577 1017.21 148.933C1011.68 171.857 1006.77 194.998 999.747 217.471C991.571 243.643 981.421 269.199 972.036 295.274C975.59 294.679 980.319 293.71 985.095 293.119C997.585 291.572 1010.19 290.724 1022.57 288.57C1032.02 286.925 1041.37 286.518 1050.75 287.618C1067.97 289.635 1085.38 291.034 1102.25 294.757C1115.08 297.59 1124.97 304.165 1118.3 323.41C1111.95 341.732 1103.14 358.819 1092.29 374.744C1081.8 390.146 1071.11 405.544 1059.05 419.703C1049.03 431.459 1037.25 441.815 1025.6 452.045C1015.06 461.296 1004.16 470.323 992.483 478.038C975.502 489.26 957.495 498.859 937.888 504.919C921.42 510.009 904.881 514.869 889.193 519.584C888.837 519.386 889.576 519.798 889.071 519.516C878.486 521.034 866.954 522.687 854.432 524.355C849.589 524.74 845.742 525.349 841.882 525.445C819.91 525.995 797.909 525.834 776.261 521.763C761.441 518.977 746.854 514.896 732.25 511.066C729.103 510.241 725.137 509.201 725.634 504.109C727.269 502.846 728.67 501.862 730.49 500.81C760.207 488.17 786.384 470.77 809.437 448.851C819.426 439.354 828.436 428.826 837.908 419.205C839.234 423.04 840.543 426.437 842.132 430.562C850.394 425.781 858.98 421.236 867.128 416.01C885.657 404.127 901.169 388.789 915.399 372.163C924.502 361.528 933.721 350.901 941.777 339.485C952.183 324.738 962.076 309.589 968.562 292.482C971.941 283.569 977.111 275.304 980.172 266.304C989.077 240.119 997.853 213.866 1005.63 187.331C1010.03 172.294 1015.03 157.166 1014.73 140.688C1013.62 136.59 1012.57 132.922 1011.51 129.254Z" fill="#F594A2"/>
<path d="M725.399 504.389C725.135 509.201 729.102 510.241 732.249 511.066C746.853 514.896 761.44 518.977 776.26 521.763C797.908 525.833 819.909 525.994 841.881 525.445C845.741 525.349 849.588 524.74 853.944 524.361C854.448 524.355 854.336 524.892 854.042 525.236C853.439 526.081 853.13 526.582 852.821 527.084C853.718 526.911 854.614 526.737 855.511 526.564C856.027 526.61 856.544 526.655 857.627 526.985C858.474 527.521 858.799 527.683 859.168 527.756C859.648 527.771 860.128 527.785 861.094 528.289C866.329 530.694 871.022 532.767 875.849 534.461C878.438 535.369 881.257 535.623 883.972 536.173C883.972 536.173 884.396 536.085 884.471 536.645C885.464 537.544 886.381 537.883 887.298 538.222C887.298 538.222 887.196 538.229 887.392 538.482C888.245 538.949 888.903 539.164 889.56 539.379C889.56 539.379 889.552 539.439 889.629 539.842C891.636 541.137 893.565 542.028 895.494 542.92C895.494 542.92 895.402 542.925 895.565 543.277C897.341 544.26 898.954 544.891 900.566 545.522C900.566 545.522 900.899 545.675 900.765 546.259C902.432 547.882 904.232 548.92 906.032 549.958C906.032 549.958 905.923 550.009 905.988 550.391C907.331 551.395 908.609 552.017 909.887 552.64C909.887 552.64 910.21 552.706 910.23 553.205C910.82 553.988 911.391 554.271 911.961 554.555C911.961 554.555 911.795 554.665 911.908 554.998C912.894 555.583 913.765 555.834 914.637 556.086C914.637 556.086 914.963 556.168 914.9 556.709C915.776 557.97 916.714 558.69 917.653 559.409C917.653 559.409 917.583 559.462 917.666 559.757C918.263 560.317 918.777 560.581 919.291 560.845C919.291 560.845 919.682 561.005 919.653 561.398C919.625 561.79 919.899 562.073 919.899 562.073L920.272 561.942C920.272 561.942 920.769 562.1 920.783 562.531C920.796 562.962 921.071 563.245 921.071 563.245L921.444 563.113C921.444 563.113 921.942 563.271 921.955 563.703C921.969 564.134 922.243 564.417 922.243 564.417L922.614 564.284C922.614 564.284 923.04 564.365 923.017 564.967C924.397 567.018 925.799 568.466 927.202 569.913C927.603 569.872 927.921 570.016 928.245 570.971C928.871 571.888 929.409 572.179 929.947 572.469C929.947 572.469 930.25 572.654 930.074 573.228C930.949 574.825 932.001 575.849 933.053 576.873C933.053 576.873 932.939 576.934 932.96 577.27C933.756 578.567 934.53 579.527 935.304 580.487C935.304 580.487 935.213 580.522 935.251 580.866C936.085 582.135 936.882 583.06 937.679 583.985C937.679 583.985 937.582 584.024 937.576 584.422C939.162 587.268 940.753 589.716 942.345 592.164C942.345 592.164 942.229 592.253 942.234 592.659C942.501 594.381 942.595 595.759 943.051 597.005C950.255 616.736 957.567 636.441 952.867 658.083C952.867 658.083 952.811 657.975 952.451 658.023C947.069 661.251 942.332 665.064 936.965 667.471C927.437 671.743 917.513 675.126 907.804 679.006C907.023 679.318 906.626 680.59 906.051 681.415C902.895 682.605 899.711 683.728 896.593 685.01C894.831 685.734 893.177 686.72 891.659 687.493C890.516 687.155 888.904 686.075 887.671 686.406C876.707 689.347 865.521 690.089 854.252 690.972C823.787 693.359 794.398 687.723 765.711 678.801C729.098 667.415 694.968 650.767 667.032 623.729C654.911 611.998 644.921 598.408 638.45 582.569C635.886 576.293 630.552 574.512 620.45 576.715C619.92 576.655 619.786 576.099 619.937 575.656C621.823 574.647 623.59 574.162 625.284 573.493C627.232 572.723 629.116 571.789 631.947 570.511C636.272 573.646 636.742 573.758 643.34 571.757C671.81 563.125 693.649 545 712.525 522.868C717.374 517.184 721.137 510.574 725.399 504.389Z" fill="#F99FAC"/>
<path d="M522.717 576.012C522.187 576.703 521.658 577.394 520.395 578.223C517.952 580.332 516.242 582.303 514.532 584.274C509.976 588.282 505.66 592.611 500.812 596.228C492.412 602.494 484.038 608.937 474.981 614.135C467.62 618.36 459.335 621.028 451.35 624.099C441.212 627.997 431.125 632.16 420.72 635.192C408.786 638.669 396.55 641.129 384.398 643.817C380.867 644.599 377.141 644.47 373.568 645.114C372.07 645.385 370.739 646.578 368.719 647.689C364.494 645.265 335.084 645.371 330.748 648.287C329.382 647.183 328.211 645.444 326.802 645.225C317.106 643.715 307.188 643.252 297.682 641.011C289.286 639.032 281.184 635.526 273.216 632.083C260.383 626.539 247.832 620.346 235.014 614.767C232.034 613.47 228.46 613.54 225.089 612.084C226.418 612.084 227.747 612.084 228.699 612.084C218.172 605.045 207.319 598.36 197.119 590.794C188.215 584.189 183.941 574.056 182.758 563.576C182.129 558.008 184.766 551.355 187.75 546.258C192.604 537.966 198.329 529.971 204.849 522.927C210.999 516.283 218.672 511.053 225.595 505.109C226.117 504.661 226 503.47 226.072 503.133C230.573 500.856 235.278 498.612 239.856 496.135C254.687 488.112 269.992 481.217 286.14 476.27C290.048 475.073 293.947 473.846 298.231 472.876C298.574 473.307 298.514 473.492 298.501 473.681C298.488 473.87 298.483 474.216 298.539 474.23C302.93 475.312 307.327 476.369 311.446 477.671C310.413 477.92 309.597 477.739 308.914 477.964C306.45 478.775 304.031 479.721 301.595 480.617C302.873 482.614 303.793 485.009 305.493 486.537C311.067 491.551 316.924 496.251 322.673 501.071C322.124 501.632 321.576 502.194 321.027 502.755C324.556 503.008 328.087 503.236 331.614 503.519C340.515 504.235 349.433 503.022 357.998 508.112C362.763 510.944 369.562 510.371 375.453 511.283C378.593 511.769 382.284 511.264 384.782 512.771C389.366 515.537 393.101 517.079 397.802 513.039C398.985 512.021 401.902 512.999 404.021 513.095C409.764 513.356 415.577 513.189 421.221 514.085C424.31 514.576 427.189 516.744 430.017 518.404C432.014 519.577 434.006 522.514 435.57 522.237C437.65 521.868 440.066 519.478 441.016 517.363C444.033 510.647 445.029 509.878 451.474 511.751C452.957 510.478 454.373 509.261 455.886 507.962C461.573 511.194 466.866 514.228 472.192 517.204C473.026 517.67 473.993 517.918 474.921 518.189C480.953 519.95 487.007 521.64 493.009 523.495C493.802 523.741 494.822 524.728 494.927 525.485C495.643 530.64 500.87 535.798 494.389 540.928C503.13 546.485 492.432 547.498 492.234 551.443C499.147 552.746 496.318 556.645 495.092 559.184C496.793 562.305 497.873 564.81 499.446 566.951C500.251 568.048 502.059 569.26 503.205 569.081C505.673 568.695 508.005 567.443 509.463 566.895C513.035 567.819 516.306 569.687 519.144 569.171C524.003 568.286 525.114 570.026 524.832 574.176C524.832 574.176 524.742 574.451 524.26 574.428C523.424 574.941 523.071 575.476 522.717 576.012Z" fill="#FBAAB5"/>
<path d="M525.946 124.593C534.783 96.9136 550.904 73.6746 569.132 51.4159C583.479 33.8975 600.682 20.0898 619.645 8.35015C629.502 2.24826 640.566 -1.11199 652.6 0.333452C662.023 1.46519 669.302 6.75955 675.928 12.6911C688.276 23.7459 697.767 37.1683 705.907 51.5715C717.67 72.3827 725.634 94.6343 731.031 118.563C730.65 120.466 730.174 121.683 730.452 122.693C735.96 142.68 737.732 163.227 737.992 183.757C738.167 197.653 736.133 211.632 734.302 225.469C733.608 230.713 730.712 235.665 728.468 240.577C715.535 230.58 701.461 223.555 686.368 218.602C664.64 211.472 642.372 207.086 619.523 205.359C598.465 203.768 577.458 203.521 556.568 206.691C542.94 208.759 529.442 211.686 515.674 213.755C515.507 205.752 515.56 198.223 515.594 190.694C515.677 171.87 518.777 153.51 523.888 135.432C524.884 131.907 525.276 128.21 525.946 124.593Z" fill="#FCAFBA"/>
<path d="M311.723 477.427C307.326 476.369 302.929 475.312 298.539 474.23C298.482 474.216 298.488 473.87 298.501 473.681C298.514 473.492 298.573 473.307 298.691 472.839C274.573 462.559 252.257 449.357 231.605 433.284C211.698 417.791 193.202 400.776 176.712 381.689C159.79 362.102 143.974 341.686 131.025 319.143C122.225 303.821 114.277 288.138 108.589 271.399C106.074 263.996 104.102 256.569 107.298 248.574C111.547 237.946 120.939 235.264 130.367 233.708C153.921 229.82 177.191 233.027 200.119 238.715C211.327 241.496 222.324 245.133 234.168 248.787C236.65 250.894 239.419 252.32 239.956 254.34C247.579 282.974 257.92 310.384 275.037 334.857C279.365 341.044 283.851 347.12 288.313 353.581C288.726 354.463 289.089 355.01 289.643 355.901C294.1 361.753 298.078 367.519 302.711 372.698C307.321 377.851 312.589 382.415 317.635 387.632C319.584 390.203 321.271 392.597 323.39 394.515C328.268 398.931 333.026 403.596 338.426 407.295C350.394 415.492 362.613 423.344 375.006 430.882C377.566 432.44 381.464 434.389 384.706 430.769C395.276 448.877 407.654 465.011 423.401 478.416C430.344 484.326 437.266 490.259 443.729 496.188C440.822 496.577 438.385 496.96 435.405 497.341C424.676 496.96 414.489 496.581 403.914 496.193C403.005 496.178 402.486 496.173 401.486 496.086C395.848 495.669 390.69 495.333 385.149 494.991C384.254 494.983 383.743 494.98 382.894 494.704C380.821 494.24 379.086 494.048 376.915 493.847C375.605 493.825 374.732 493.812 373.577 493.541C372.303 493.087 371.313 492.892 369.873 492.67C367.367 492.269 365.311 491.897 362.836 491.45C360.756 491.037 359.096 490.699 357 490.282C353.72 489.47 350.875 488.737 347.742 487.997C347.454 487.989 346.878 487.983 346.439 487.905C334.575 484.361 323.149 480.894 311.723 477.427Z" fill="#F594A3"/>
<path d="M317.569 387.238C312.589 382.415 307.321 377.851 302.712 372.698C298.078 367.519 294.1 361.753 289.774 355.602C289.679 354.188 289.645 353.415 289.611 352.643C289.162 352.845 288.713 353.046 288.265 353.247C283.851 347.12 279.365 341.044 275.038 334.857C257.921 310.384 247.58 282.974 239.957 254.34C239.419 252.32 236.651 250.894 234.53 249.014C236.566 242.164 233.114 236.36 231.195 230.424C229.241 224.382 226.856 218.578 226.016 212.127C224.865 203.297 222.594 194.617 220.967 185.842C219.82 179.663 218.833 173.45 217.973 167.225C216.347 155.458 214.218 143.709 213.533 131.882C213.009 122.85 213.56 113.48 221.737 106.897C226.568 103.008 232.38 102.303 237.658 103.819C248.765 107.008 259.626 111.121 270.444 115.233C288.913 122.255 305.632 132.607 322.06 143.382C329.852 148.493 337.194 154.289 345.547 159.885C348.794 163.142 350.987 166.526 353.721 169.392C364.313 180.493 375.26 191.259 385.706 202.493C391.641 208.876 396.918 215.879 402.379 222.693C405.372 226.428 408.212 230.297 410.903 234.253C411.274 234.798 410.384 236.199 409.643 237.189C403.368 235.079 397.607 232.722 391.672 230.946C381.461 227.89 372.857 231.473 369.169 241.025C365.829 249.677 363.631 258.771 360.553 267.768C360.041 269.363 359.906 270.861 359.771 272.749C359.763 273.662 359.756 274.183 359.334 274.839C358.425 279.183 357.933 283.394 357.441 287.988C357.442 288.884 357.442 289.396 357.152 290.242C356.662 294.661 356.462 298.748 356.259 303.373C356.259 308.231 356.262 312.55 355.968 317.24C355.527 320.306 355.207 323.007 355.27 325.698C355.512 335.954 355.901 346.206 356.178 356.461C356.23 358.371 355.79 360.309 355.965 362.198C356.982 373.222 344.305 383.563 333.45 380.974C328.203 379.723 322.655 379.733 316.811 379.127C317.11 382.331 317.34 384.785 317.569 387.238Z" fill="#FBA6B3"/>
<path d="M348.031 488.004C350.876 488.737 353.721 489.47 357.111 490.669C359.523 491.264 361.389 491.395 363.256 491.525C365.312 491.897 367.368 492.269 369.953 493.024C371.608 493.537 372.734 493.669 373.86 493.8C374.733 493.812 375.606 493.825 377.027 494.238C379.461 494.751 381.346 494.864 383.232 494.977C383.744 494.98 384.255 494.983 385.503 495.284C391.482 495.777 396.725 495.972 401.968 496.168C402.487 496.173 403.006 496.178 403.987 496.602C408.368 501.682 413.967 503.184 418.128 501.364C421.28 499.986 424.771 499.331 428.159 498.564C430.716 497.985 433.349 497.738 435.948 497.343C438.386 496.96 440.823 496.577 444.129 496.251C462.291 506.913 479.411 517.886 499.04 522.689C500.685 517.092 501.813 512.205 503.551 507.546C507.421 497.173 515.413 489.676 523.192 482.516C538.223 468.682 556.036 458.98 574.898 451.281C578.424 449.842 582.255 449.148 586.332 447.967C598.976 442.986 611.232 438.147 623.954 433.205C628.99 431.451 633.561 429.8 638.514 428.07C639.604 427.68 640.312 427.371 641.487 427.041C642.901 426.811 643.861 426.642 644.796 426.386C663.192 421.338 681.677 418.664 700.623 423.466C727.166 430.193 741.41 452.22 736.024 479.039C734.542 486.42 732.082 493.604 730.07 500.878C728.67 501.862 727.269 502.845 725.634 504.109C721.138 510.574 717.374 517.184 712.526 522.868C693.65 545 671.81 563.125 643.34 571.757C636.743 573.758 636.273 573.646 631.948 570.511C629.117 571.789 627.233 572.723 625.284 573.493C623.591 574.162 621.823 574.647 619.42 575.563C614.903 575.68 611.035 575.622 607.211 575.18C597.112 574.014 587.032 572.682 576.944 571.416C563.417 567.657 549.891 563.897 536.483 560.17C533.005 564.482 529.245 569.142 525.159 573.989C525.115 570.026 524.003 568.286 519.145 569.171C516.307 569.687 513.035 567.819 509.463 566.895C508.005 567.443 505.673 568.695 503.205 569.081C502.06 569.26 500.252 568.048 499.446 566.951C497.873 564.81 496.794 562.305 495.092 559.184C496.319 556.645 499.147 552.746 492.235 551.443C492.432 547.498 503.13 546.485 494.39 540.929C500.87 535.798 495.644 530.641 494.928 525.485C494.823 524.728 493.803 523.741 493.01 523.495C487.007 521.64 480.953 519.95 474.921 518.189C473.993 517.918 473.026 517.67 472.193 517.204C466.867 514.228 461.573 511.194 455.886 507.962C454.373 509.262 452.957 510.478 451.475 511.752C445.03 509.878 444.034 510.647 441.016 517.363C440.066 519.478 437.651 521.868 435.57 522.237C434.006 522.514 432.015 519.577 430.017 518.404C427.189 516.744 424.31 514.576 421.221 514.085C415.578 513.189 409.764 513.356 404.021 513.095C401.902 512.999 398.985 512.021 397.802 513.039C393.102 517.08 389.367 515.537 384.783 512.771C382.284 511.264 378.593 511.769 375.453 511.283C369.563 510.371 362.763 510.944 357.998 508.112C349.434 503.022 340.515 504.235 331.614 503.52C328.087 503.236 324.556 503.008 321.027 502.755C321.576 502.194 322.125 501.632 322.674 501.071C316.925 496.251 311.067 491.551 305.493 486.537C303.794 485.009 302.873 482.614 301.596 480.617C304.032 479.721 306.45 478.775 308.914 477.964C309.597 477.739 310.414 477.92 311.446 477.671C323.15 480.894 334.575 484.361 346.557 488.054C347.112 488.28 347.623 488.366 347.623 488.366L348.031 488.004Z" fill="#FBA6B3"/>
<path d="M410.077 237.204C410.383 236.199 411.272 234.798 410.902 234.253C408.211 230.297 405.371 226.428 402.377 222.693C396.917 215.879 391.64 208.876 385.705 202.493C375.259 191.259 364.312 180.493 353.72 169.392C350.985 166.526 348.793 163.142 345.953 159.877C346.362 146.371 346.313 132.861 348.209 119.63C350.273 105.226 353.896 91.0208 357.293 76.8375C360.7 62.6133 366.344 49.2399 373.715 36.556C380.732 24.481 390.564 19.5868 406.407 24.3413C425.821 30.1672 442.667 40.952 458.214 53.7005C467.731 61.5042 477.607 69.1323 485.827 78.1947C499.081 92.8072 511.097 108.542 523.662 123.781C524.048 124.25 524.717 124.486 525.6 124.712C525.275 128.21 524.883 131.907 523.887 135.432C518.776 153.51 515.676 171.87 515.593 190.694C515.559 198.223 515.506 205.752 515.318 213.963C505.291 218.674 494.999 221.932 485.619 226.909C470.439 234.965 455.539 243.859 451.99 263.09C437.742 254.392 423.91 245.798 410.077 237.204Z" fill="#F696A5"/>
<path d="M728.82 240.75C730.712 235.665 733.608 230.713 734.302 225.469C736.133 211.631 738.167 197.652 737.992 183.756C737.732 163.226 735.96 142.679 730.452 122.692C730.174 121.683 730.65 120.465 731.075 119.026C733.606 117.423 736.099 116.444 738.015 114.794C742.766 110.703 747.254 106.305 752.041 101.722C752.235 101.413 752.189 101.485 752.189 101.485C765.116 89.4633 778.918 78.5743 793.926 69.2493C805.47 62.0765 816.458 53.6583 828.744 48.1296C840.738 42.7326 853.355 37.7298 866.91 36.9497C875.589 36.4503 884.529 41.8786 887.48 50.6597C890.734 60.3421 893.757 70.3036 895.096 80.3807C897.125 95.6443 898.05 111.098 898.583 126.5C898.88 135.071 897.357 143.698 896.906 152.313C896.867 153.064 898.711 153.912 900.24 154.718C900.927 154.875 901.055 155.029 900.927 155.484C897.265 158.924 891.847 160.671 892.432 166.919C887.051 167.23 882.038 166.855 877.402 168.003C850.643 174.626 826.806 187.86 805.163 204.188C782.825 221.039 762.269 240.25 740.839 257.974C739.786 255.234 739.239 252.634 737.783 250.73C735.075 247.19 731.838 244.054 728.82 240.75Z" fill="#F596A4"/>
<path d="M577.055 571.813C587.03 572.682 597.11 574.014 607.209 575.18C611.033 575.622 614.901 575.681 619.267 576.007C619.785 576.099 619.92 576.655 620.053 576.91C617.27 589.412 614.663 601.743 611.361 613.885C606.99 629.961 602.324 645.967 597.328 661.86C591.533 680.297 585.469 698.658 579.098 716.905C573.578 732.715 567.312 748.262 561.658 764.027C555.133 782.221 548.891 800.516 542.579 818.786C540.193 825.694 537.952 832.652 535.258 839.953C534.319 840.397 533.768 840.476 533.216 840.554C533.234 838.602 533.252 836.65 533.535 833.981C534.074 832.251 534.348 831.238 534.622 830.225C539.199 818.042 543.776 805.859 548.664 792.99C549.18 791.646 549.385 790.988 549.59 790.33C551.136 785.973 552.682 781.615 554.539 776.58C555.058 775.239 555.265 774.576 555.473 773.914C559.008 764.159 562.543 754.404 566.331 744.013C566.754 743.021 566.924 742.664 567.095 742.308C573.769 723.499 580.444 704.69 587.383 685.185C587.852 683.833 588.056 683.176 588.26 682.519C594.967 659.8 601.674 637.08 608.668 613.528C611.48 603.324 614.063 593.969 616.512 584.579C618.177 578.192 617.371 577.401 610.547 576.997C604.553 576.642 598.522 576.302 592.61 575.331C579.788 573.224 579.815 573.061 576.804 585.858C576.76 586.043 576.785 586.245 576.777 586.439C571.638 605.201 566.499 623.963 561.03 643.479C560.483 645.291 560.266 646.349 560.05 647.408C558.623 651.422 557.197 655.437 555.579 660.13C555.387 660.808 555.288 661.364 555.288 661.364C552.286 670.419 549.284 679.473 545.894 689.192C545.298 690.538 545.09 691.22 544.882 691.903C543.011 697.028 541.14 702.153 538.868 707.942C538.253 709.293 538.038 709.979 537.823 710.665C529.708 731.416 521.592 752.167 513.091 773.586C512.485 774.931 512.265 775.61 512.046 776.288C511.299 777.915 510.552 779.542 509.496 781.816C508.962 783.142 508.736 783.822 508.51 784.501C507.775 786.138 507.041 787.775 505.993 790.05C505.448 791.363 505.216 792.036 504.983 792.709C503.245 796.409 501.506 800.109 499.235 803.89C498.462 803.603 498.221 803.235 497.98 802.867C501.397 794.488 504.834 786.117 508.224 777.727C514.139 763.09 520.158 748.493 525.887 733.784C532.283 717.364 538.578 700.9 544.592 684.337C549.99 669.47 555.448 654.593 559.976 639.45C566.245 618.49 571.689 597.283 577.399 576.159C577.725 574.951 577.263 573.531 577.055 571.813Z" fill="#49773A"/>
<path d="M1011.49 129.278C1012.56 132.922 1013.62 136.59 1014.3 140.839C1013.46 143.005 1012.63 144.576 1012.56 146.178C1012.09 157.279 1007.78 160.728 997.721 156.903C992.53 154.93 987.044 153.49 983.294 148.061C979.926 143.184 974.395 139.838 970.113 135.525C969.232 134.638 968.968 131.517 969.607 131.049C971.496 129.667 973.94 128.976 976.238 128.236C981.754 126.461 988.281 127.522 993.054 122.377C997.925 123.153 1002.32 123.907 1006.72 124.66C1007.11 124.68 1007.45 124.822 1007.85 125.772C1009.14 127.389 1010.32 128.319 1011.5 129.249C1011.5 129.249 1011.47 129.303 1011.49 129.278Z" fill="#F99FAC"/>
<path d="M1006.54 124.253C1002.32 123.907 997.926 123.153 992.698 122.09C989.753 121.672 987.485 121.009 985.554 121.549C976.933 123.961 968.365 126.583 959.862 129.382C950.801 132.365 941.834 135.633 932.821 138.77C932.816 138.764 932.806 138.752 932.809 138.466C932.813 138.18 932.822 137.609 932.822 137.609C935.636 136.359 938.369 134.867 941.277 133.9C955.885 129.044 970.472 124.106 985.203 119.647C992.758 117.36 999.599 120.963 1006.54 124.253Z" fill="#F594A2"/>
<path d="M953.333 658.05C957.568 636.441 950.256 616.737 943.051 597.006C942.596 595.759 942.502 594.381 942.275 592.598C949.587 602.907 952.321 615.333 955.16 627.706C955.928 631.056 956.336 634.488 956.946 637.876C958.219 644.956 957.961 651.79 953.333 658.05Z" fill="#F594A2"/>
<path d="M906.518 681.419C906.627 680.59 907.024 679.318 907.804 679.006C917.513 675.126 927.437 671.743 936.965 667.471C942.333 665.064 947.07 661.251 952.506 658.051C952.56 663.931 947.192 665.866 943.444 667.605C932.171 672.834 920.339 676.86 908.713 681.323C908.199 681.52 907.563 681.397 906.518 681.419Z" fill="#F594A2"/>
<path d="M883.644 535.981C881.257 535.623 878.439 535.369 875.85 534.461C871.023 532.767 866.329 530.694 861.439 528.392C868.638 530.6 875.977 533.194 883.644 535.981Z" fill="#F594A2"/>
<path d="M909.238 149.001C913.663 146.73 918.089 144.46 923.207 142.223C924.136 142.263 924.373 142.269 924.609 142.276C924.609 142.276 924.607 142.273 924.352 142.575C919.192 145.423 914.289 147.969 909.351 150.136C909.291 149.505 909.264 149.253 909.238 149.001Z" fill="#F594A2"/>
<path d="M908.842 149.083C909.265 149.253 909.291 149.505 909.092 150.425C906.306 152.455 903.744 153.819 901.182 155.182C901.054 155.029 900.927 154.875 900.615 154.485C903.103 152.554 905.775 150.86 908.842 149.083Z" fill="#F596A4"/>
<path d="M924.613 141.215C926.615 140.359 928.617 139.502 931.378 138.69C932.36 138.74 932.583 138.746 932.806 138.752C932.806 138.752 932.817 138.764 932.606 139.122C929.8 140.411 927.205 141.342 924.609 142.273C924.609 142.273 924.611 142.275 924.613 142.01C924.616 141.745 924.613 141.215 924.613 141.215Z" fill="#F594A2"/>
<path d="M514.943 584.218C516.241 582.303 517.951 580.332 520.076 578.323C518.779 580.244 517.068 582.203 514.943 584.218Z" fill="#FBA6B3"/>
<path d="M942.333 591.741C940.754 589.716 939.162 587.268 937.596 584.374C939.188 586.391 940.754 588.855 942.333 591.741Z" fill="#F594A2"/>
<path d="M420.546 761.865C418.709 760.974 416.814 759.716 414.859 758.059C416.696 758.94 418.592 760.219 420.546 761.865Z" fill="#749C65"/>
<path d="M927.169 569.523C925.798 568.465 924.395 567.017 923.107 565.163C924.527 566.216 925.832 567.674 927.169 569.523Z" fill="#F594A2"/>
<path d="M905.89 549.607C904.232 548.92 902.432 547.881 900.791 546.441C902.549 547.111 904.148 548.184 905.89 549.607Z" fill="#F594A2"/>
<path d="M895.33 542.551C893.565 542.029 891.635 541.138 889.658 539.835C891.462 540.343 893.314 541.262 895.33 542.551Z" fill="#F594A2"/>
<path d="M933.059 576.502C932.001 575.849 930.949 574.825 930.078 573.406C931.195 574.05 932.131 575.09 933.059 576.502Z" fill="#F594A2"/>
<path d="M1011.48 128.835C1010.32 128.319 1009.14 127.389 1007.93 126.042C1009.09 126.556 1010.27 127.488 1011.48 128.835Z" fill="#F594A2"/>
<path d="M909.684 552.34C908.608 552.018 907.33 551.395 906.016 550.338C907.147 550.616 908.314 551.327 909.684 552.34Z" fill="#F594A2"/>
<path d="M900.371 545.199C898.955 544.891 897.342 544.26 895.572 543.232C897.002 543.515 898.588 544.195 900.371 545.199Z" fill="#F594A2"/>
<path d="M399.677 741.836C398.5 740.974 397.33 739.715 396.117 738.055C397.278 738.916 398.482 740.177 399.677 741.836Z" fill="#749C65"/>
<path d="M855.436 526.286C854.613 526.738 853.717 526.911 852.82 527.084C853.129 526.583 853.438 526.081 854.075 525.509C854.823 525.46 855.142 525.65 855.436 526.286Z" fill="#F594A2"/>
<path d="M917.616 559.036C916.715 558.69 915.776 557.97 914.943 556.872C915.892 557.216 916.735 557.939 917.616 559.036Z" fill="#F594A2"/>
<path d="M405.35 747.773C404.651 747.57 403.947 746.975 403.223 746.002C403.917 746.21 404.631 746.795 405.35 747.773Z" fill="#749C65"/>
<path d="M937.665 583.588C936.882 583.06 936.085 582.135 935.27 580.821C936.051 581.351 936.851 582.271 937.665 583.588Z" fill="#F594A2"/>
<path d="M935.277 580.099C934.531 579.527 933.757 578.567 932.988 577.211C933.746 577.781 934.497 578.746 935.277 580.099Z" fill="#F594A2"/>
<path d="M914.464 555.793C913.765 555.834 912.893 555.583 911.971 554.921C912.71 554.841 913.5 555.17 914.464 555.793Z" fill="#F594A2"/>
<path d="M752.269 101.388C751.602 100.762 750.9 100.159 750.197 99.5571C750.483 99.3388 750.769 99.1206 751.055 98.9023C751.408 99.4832 751.761 100.064 752.151 101.065C752.188 101.485 752.234 101.413 752.269 101.388Z" fill="#F596A4"/>
<path d="M887.181 537.906C886.38 537.883 885.463 537.545 884.6 536.819C885.457 536.818 886.26 537.204 887.181 537.906Z" fill="#F594A2"/>
<path d="M919.126 560.609C918.778 560.581 918.263 560.317 917.691 559.722C918.076 559.718 918.518 560.046 919.126 560.609Z" fill="#F594A2"/>
<path d="M911.886 554.268C911.39 554.271 910.82 553.988 910.281 553.361C910.812 553.339 911.312 553.66 911.886 554.268Z" fill="#F594A2"/>
<path d="M889.435 539.033C888.904 539.164 888.246 538.949 887.398 538.431C887.908 538.314 888.609 538.5 889.435 539.033Z" fill="#F594A2"/>
<path d="M523.006 575.938C523.069 575.476 523.423 574.941 524.117 574.456C524.07 574.959 523.683 575.411 523.006 575.938Z" fill="#FBA6B3"/>
<path d="M929.812 572.192C929.409 572.179 928.871 571.888 928.295 571.238C928.73 571.224 929.204 571.569 929.812 572.192Z" fill="#F594A2"/>
<path d="M932.808 138.466C932.582 138.746 932.359 138.74 931.802 138.714C931.685 138.278 931.901 137.862 932.469 137.527C932.821 137.609 932.812 138.18 932.808 138.466Z" fill="#F99FAD"/>
<path d="M924.279 141.182C924.612 141.215 924.615 141.745 924.613 142.011C924.375 142.269 924.138 142.263 923.548 142.222C923.445 141.842 923.695 141.496 924.279 141.182Z" fill="#F99FAD"/>
<path d="M400.807 743.1C400.56 743.188 400.232 742.971 399.773 742.482C400.004 742.406 400.364 742.6 400.807 743.1Z" fill="#749C65"/>
<path d="M394.944 736.075C394.703 736.17 394.367 735.968 393.904 735.495C394.134 735.409 394.492 735.594 394.944 736.075Z" fill="#749C65"/>
<path d="M859.061 527.455C858.799 527.684 858.474 527.522 858.008 527.068C858.198 526.962 858.575 527.058 859.061 527.455Z" fill="#F594A2"/>
<path d="M922.591 564.152C922.614 564.285 922.242 564.417 922.242 564.417C922.242 564.417 921.969 564.135 922.042 563.95C922.115 563.765 922.567 564.018 922.591 564.152Z" fill="#F594A2"/>
<path d="M921.42 562.98C921.444 563.114 921.071 563.246 921.071 563.246C921.071 563.246 920.797 562.962 920.87 562.777C920.942 562.592 921.396 562.847 921.42 562.98Z" fill="#F594A2"/>
<path d="M920.247 561.809C920.271 561.943 919.898 562.074 919.898 562.074C919.898 562.074 919.624 561.79 919.696 561.605C919.768 561.419 920.222 561.675 920.247 561.809Z" fill="#F594A2"/>
<path d="M576.451 586.486C575.996 586.206 575.97 586 576.016 585.811C579.155 572.782 579.128 572.949 592.495 575.094C598.66 576.083 604.948 576.429 611.197 576.79C618.312 577.202 619.153 578.007 617.416 584.51C614.864 594.07 612.17 603.594 609.296 613.5C602.79 615.184 597.777 610.483 598.116 603.812C598.31 599.99 598.151 596.152 598.151 591.892C596.027 592.241 594.928 592.422 593.238 592.7C593.451 586.351 589.958 585.719 584.586 587.109C582.242 587.716 579.483 586.796 576.451 586.486Z" fill="#749C65"/>
<path d="M560.345 647.113C560.268 646.35 560.485 645.291 560.954 643.909C561.018 644.662 560.828 645.74 560.345 647.113Z" fill="#749C65"/>
<path d="M538.095 710.415C538.038 709.979 538.253 709.293 538.713 708.337C538.762 708.766 538.564 709.465 538.095 710.415Z" fill="#749C65"/>
<path d="M588.006 682.762C588.056 683.176 587.852 683.833 587.411 684.747C587.366 684.338 587.559 683.671 588.006 682.762Z" fill="#749C65"/>
<path d="M545.149 691.652C545.089 691.22 545.297 690.538 545.747 689.585C545.798 690.01 545.607 690.706 545.149 691.652Z" fill="#749C65"/>
<path d="M566.867 742.504C566.924 742.664 566.754 743.021 566.362 743.582C566.307 743.424 566.473 743.062 566.867 742.504Z" fill="#749C65"/>
<path d="M555.466 661.282C555.288 661.363 555.387 660.807 555.453 660.533C555.9 660.552 555.941 660.866 555.466 661.282Z" fill="#749C65"/>
<path d="M740.932 258.429C762.268 240.251 782.824 221.039 805.161 204.188C826.805 187.86 850.641 174.626 877.4 168.003C882.037 166.856 887.05 167.231 892.709 167.186C896.476 171.621 900.851 175.377 902.123 179.99C907.826 200.665 907.507 221.974 905.563 243.042C902.732 273.73 896.008 303.692 885.168 332.645C874.258 361.788 860.558 389.419 841.104 414.329C840.591 415.193 840.335 415.827 839.798 416.626C838.974 417.449 838.431 418.108 837.888 418.766C828.433 428.826 819.424 439.353 809.435 448.851C786.381 470.77 760.205 488.17 730.487 500.81C732.08 493.604 734.54 486.42 736.022 479.039C741.408 452.22 727.164 430.193 700.621 423.466C681.675 418.664 663.19 421.338 644.794 426.386C643.859 426.642 642.899 426.811 641.484 426.55C641.765 421.308 642.512 416.537 643.263 411.756C643.266 411.748 643.237 411.747 643.529 411.489C644.025 410.233 644.227 409.235 644.401 408.242C644.374 408.246 644.361 408.192 644.744 408.013C646.881 402.518 648.637 397.202 650.748 391.66C651.603 389.602 652.103 387.77 652.667 385.965C652.731 385.993 652.596 385.963 652.875 385.753C653.366 384.896 653.578 384.25 653.839 383.607C653.888 383.61 653.794 383.632 654.087 383.355C654.562 382.301 654.745 381.524 654.885 380.603C654.843 380.459 654.95 380.178 655.361 380.07C656.322 378.468 656.871 376.973 657.772 375.265C658.966 372.797 659.809 370.542 660.682 368.294C660.713 368.302 660.756 368.348 660.933 368.275C661.41 367.879 661.369 367.574 661.03 366.901C661.056 366 661.039 365.486 660.994 364.946C660.966 364.919 660.988 364.993 661.302 364.942C661.81 364.525 662.005 364.159 662.169 363.82C662.139 363.846 662.205 363.893 662.422 363.849C662.639 363.806 663.062 363.674 663.352 363.485C663.918 362.676 664.193 362.056 664.85 361.333C665.754 360.121 666.276 359.01 667.054 357.66C667.489 356.754 667.667 356.089 667.882 355.44C667.919 355.457 667.862 355.515 668.137 355.297C668.633 354.43 668.854 353.781 669.103 353.164C669.131 353.196 669.048 353.177 669.296 353.031C669.851 352.64 670.085 352.34 670.251 352.011C670.257 352.039 670.226 351.982 670.494 351.764C670.972 350.903 671.181 350.26 671.379 349.653C671.367 349.689 671.347 349.617 671.517 349.543C671.987 349.17 671.969 348.869 671.787 348.206C678.448 337.541 684.954 327.238 691.45 316.925C691.438 316.916 691.448 316.919 691.772 316.731C692.454 315.882 692.812 315.221 693.454 314.325C709.469 295.536 725.201 276.983 740.932 258.429Z" fill="#FDB7C2"/>
<path d="M837.906 419.205C838.432 418.108 838.975 417.449 840.136 416.59C840.956 415.627 841.159 414.863 841.362 414.099C860.559 389.419 874.259 361.788 885.169 332.645C896.008 303.692 902.732 273.73 905.564 243.043C907.508 221.974 907.827 200.665 902.124 179.99C900.852 175.377 896.476 171.621 893.251 167.203C891.846 160.671 897.264 158.924 900.926 155.485C903.744 153.819 906.306 152.456 909.127 150.803C914.29 147.969 919.193 145.423 924.352 142.575C927.203 141.342 929.799 140.411 932.61 139.129C941.833 135.633 950.8 132.365 959.861 129.382C968.364 126.582 976.932 123.961 985.552 121.549C987.484 121.009 989.752 121.672 992.221 122.068C988.28 127.522 981.753 126.461 976.238 128.236C973.94 128.976 971.495 129.667 969.607 131.049C968.967 131.517 969.232 134.638 970.112 135.525C974.395 139.838 979.925 143.184 983.294 148.061C987.043 153.49 992.529 154.93 997.72 156.903C1007.78 160.728 1012.09 157.279 1012.56 146.178C1012.63 144.576 1013.46 143.005 1014.36 141.269C1015.03 157.166 1010.03 172.294 1005.62 187.331C997.851 213.866 989.075 240.119 980.171 266.304C977.11 275.304 971.94 283.568 968.56 292.482C962.074 309.589 952.181 324.738 941.775 339.485C933.72 350.901 924.5 361.528 915.398 372.163C901.168 388.789 885.656 404.127 867.126 416.01C858.978 421.236 850.393 425.78 842.131 430.562C840.541 426.437 839.232 423.04 837.906 419.205Z" fill="#F99FAD"/>
<path d="M740.839 257.975C725.203 276.983 709.471 295.536 693.086 314.483C692.106 315.558 691.778 316.238 691.45 316.919C691.45 316.919 691.44 316.916 691.037 316.95C679.522 322.035 668.838 328.666 657.211 331.809C632.333 338.532 606.688 341.196 580.982 337.724C566.813 335.81 552.735 332.485 538.973 328.547C528.98 325.688 519.574 320.779 509.559 316.787C508.989 316.843 508.764 316.895 508.565 316.926C508.591 316.905 508.53 316.927 508.51 316.523C506.948 315.213 505.405 314.305 503.88 313.379C503.896 313.361 503.9 313.411 503.752 313.108C503.202 312.617 502.8 312.429 502.076 312.043C490.032 300.478 478.273 289.15 466.608 277.726C461.77 272.988 457.134 268.045 452.406 263.195C455.54 243.859 470.441 234.964 485.621 226.909C495.001 221.932 505.293 218.674 515.531 214.436C529.442 211.686 542.94 208.758 556.568 206.69C577.459 203.52 598.465 203.767 619.523 205.359C642.372 207.086 664.64 211.472 686.368 218.602C701.461 223.554 715.536 230.58 728.469 240.577C731.838 244.055 735.076 247.19 737.784 250.731C739.24 252.635 739.787 255.234 740.839 257.975ZM648.178 240.535C645.96 244.943 646.337 248.76 650.597 251.815C654.988 254.964 658.434 252.298 661.613 249.808C664.89 247.242 664.678 243.694 662.859 240.29C660.04 235.014 654.095 234.828 648.178 240.535ZM690.441 252.766C685.586 252.282 681.946 254.602 681.534 259.129C681.297 261.74 683.316 265.57 685.533 267.174C690.031 270.43 695.587 268.275 697.64 263.416C699.51 258.991 697.335 255.429 690.441 252.766ZM527.515 278.074C525.445 282.217 524.759 286.332 529.044 289.446C532.882 292.235 536.84 291.552 540.038 288.254C543.149 285.046 543.341 281.361 540.366 277.851C537.209 274.127 533.075 274.004 527.515 278.074ZM614.111 318.689C617.752 318.742 621.705 319.654 624.907 318.495C626.576 317.89 628.363 312.96 627.531 311.187C626.264 308.484 623.047 306 620.123 305.021C618.25 304.394 613.835 306.146 613.344 307.707C612.363 310.822 613.298 314.54 614.111 318.689ZM675.546 287.598C672.807 287.113 669.837 285.716 667.377 286.337C662.62 287.538 660.833 292.746 662.885 297.179C664.816 301.349 670.34 303.063 674.325 300.728C678.519 298.271 679.337 292.853 675.546 287.598ZM601.875 244.457C605.949 242.249 608.246 238.665 606.419 234.425C605.421 232.109 601.877 229.293 599.709 229.472C596.832 229.709 593.134 232.035 591.646 234.559C588.539 239.826 593.313 244.716 601.875 244.457ZM590.464 271.624C589.549 269.565 589.167 266.506 587.6 265.671C585 264.285 581.437 263.449 578.667 264.079C576.832 264.497 574.302 268.049 574.529 269.897C574.878 272.723 576.732 276.141 579.034 277.777C583.004 280.599 587.409 278.165 590.464 271.624ZM509.802 247.816C504.75 247.329 500.113 247.857 499.281 254.086C498.729 258.218 500.741 262.339 504.802 262.249C508.291 262.173 512.9 259.985 514.873 257.21C517.446 253.591 514.988 249.842 509.802 247.816ZM545.191 233.034C543.527 235.36 540.888 237.542 540.512 240.061C540.217 242.036 542.335 245.845 544.071 246.32C546.98 247.116 550.942 246.756 553.49 245.245C555.223 244.217 556.535 239.995 555.857 237.907C554.503 233.734 550.85 231.634 545.191 233.034ZM575.008 316.864C581.088 315.934 583.933 312.932 583.378 308.034C582.847 303.36 578.77 300.289 573.569 301.824C571.161 302.535 568.22 305.426 567.731 307.786C566.812 312.214 569.694 315.372 575.008 316.864ZM632.396 264.779C629.234 265.408 625.686 265.387 623.072 266.939C621.767 267.714 621.08 272.079 622.046 273.554C623.644 275.995 626.61 278.345 629.379 278.927C631.187 279.307 634.566 276.984 635.644 275.003C637.512 271.571 636.692 267.857 632.396 264.779Z" fill="#FCD17E"/>
<path d="M451.991 263.09C457.134 268.045 461.77 272.988 466.608 277.726C478.273 289.15 490.032 300.478 502.26 312.317C503.144 312.995 503.522 313.203 503.9 313.411C503.9 313.411 503.896 313.361 504.036 313.735C505.627 315.049 507.078 315.988 508.53 316.927C508.53 316.927 508.591 316.905 508.424 317.214C508.322 317.726 508.387 317.929 508.627 318.432C509.778 319.702 510.756 320.671 511.932 321.907C512.505 322.387 512.879 322.601 513.224 322.792C513.193 322.768 513.157 322.837 513.237 323.204C514.057 324.1 514.797 324.63 515.55 325.154C515.562 325.149 515.558 325.143 515.504 325.501C515.887 326.42 516.325 326.98 516.919 327.843C518.035 329.102 518.995 330.059 520.146 331.285C520.709 331.765 521.081 331.975 521.468 332.155C521.484 332.124 521.42 332.15 521.512 332.492C521.933 333.176 522.263 333.516 522.7 334.215C535.604 352.956 548.4 371.34 561.268 390.081C562.089 391.337 562.838 392.236 563.626 393.117C563.665 393.099 563.58 393.085 563.598 393.44C564.003 394.356 564.388 394.917 564.803 395.447C564.831 395.415 564.747 395.425 564.779 395.775C565.19 396.69 565.569 397.254 565.974 397.784C565.999 397.75 565.917 397.77 565.95 398.119C566.365 399.036 566.746 399.604 567.147 400.136C567.166 400.1 567.086 400.108 567.135 400.455C567.554 401.371 567.924 401.941 568.318 402.476C568.343 402.442 568.261 402.456 568.304 402.804C568.72 403.719 569.093 404.286 569.489 404.818C569.513 404.784 569.431 404.8 569.468 405.151C569.881 406.066 570.258 406.63 570.662 407.162C570.689 407.13 570.605 407.145 570.64 407.497C571.051 408.411 571.428 408.973 571.836 409.505C571.867 409.475 571.782 409.491 571.809 409.842C572.219 410.758 572.601 411.324 573.004 411.855C573.026 411.819 572.944 411.827 572.986 412.177C573.403 413.094 573.778 413.662 574.176 414.194C574.2 414.16 574.117 414.173 574.146 414.526C574.556 415.437 574.937 415.995 575.352 416.525C575.385 416.497 575.302 416.522 575.282 416.913C575.678 418.233 576.094 419.161 576.528 420.054C576.546 420.019 576.467 420.024 576.516 420.372C576.933 421.287 577.3 421.855 577.679 422.383C577.691 422.342 577.624 422.395 577.637 422.798C578.428 424.495 579.208 425.79 580.019 427.059C580.051 427.035 580 427.089 579.9 427.552C581.432 432.792 583.065 437.568 584.712 442.305C584.726 442.265 584.652 442.305 584.643 442.682C584.731 443.55 584.828 444.041 584.991 444.9C585.352 446.215 585.648 447.163 585.945 448.11C582.255 449.148 578.425 449.842 574.899 451.281C556.037 458.98 538.223 468.683 523.192 482.516C515.414 489.676 507.422 497.174 503.551 507.546C501.813 512.205 500.685 517.092 499.041 522.689C479.411 517.886 462.291 506.913 444.598 496.245C437.267 490.259 430.345 484.326 423.402 478.417C407.655 465.012 395.277 448.877 384.635 430.366C382.778 426.852 381.279 424.018 379.708 420.84C379.267 419.914 378.897 419.332 378.483 418.388C378.075 417.126 377.712 416.226 377.335 415.047C377.321 414.768 377.286 414.21 377.134 413.814C374.639 406.843 372.105 400.33 369.988 393.685C362.541 370.314 357.173 346.564 357.358 321.835C357.37 320.183 356.647 318.525 356.266 316.869C356.263 312.55 356.259 308.231 356.554 302.997C357.05 298.025 357.247 293.966 357.443 289.908C357.443 289.396 357.442 288.884 357.73 287.622C358.595 282.817 359.173 278.761 359.75 274.705C359.757 274.183 359.764 273.662 359.831 272.35C360.237 270.262 360.583 268.966 360.929 267.67C363.631 258.771 365.829 249.677 369.17 241.025C372.857 231.473 381.462 227.891 391.672 230.946C397.607 232.723 403.368 235.08 409.643 237.19C423.911 245.798 437.744 254.392 451.991 263.09Z" fill="#FDB8C3"/>
<path d="M379.78 421.184C381.278 424.018 382.777 426.852 384.348 430.089C381.464 434.389 377.567 432.44 375.006 430.882C362.613 423.344 350.394 415.491 338.426 407.295C333.026 403.596 328.268 398.931 323.39 394.515C321.272 392.597 319.585 390.203 317.635 387.632C317.339 384.784 317.11 382.331 316.811 379.127C322.655 379.733 328.202 379.723 333.449 380.974C344.304 383.563 356.982 373.221 355.964 362.198C355.79 360.309 356.229 358.371 356.178 356.461C355.901 346.206 355.512 335.954 355.27 325.698C355.206 323.007 355.526 320.306 355.968 317.24C356.646 318.525 357.369 320.183 357.357 321.835C357.172 346.564 362.54 370.314 369.987 393.685C372.104 400.33 374.638 406.843 376.991 413.929C376.834 414.82 376.949 415.115 377.347 415.326C377.711 416.226 378.075 417.126 378.523 418.746C378.999 420.039 379.389 420.612 379.78 421.184Z" fill="#F9A1AF"/>
<path d="M435.405 497.341C433.348 497.738 430.716 497.986 428.158 498.565C424.77 499.332 421.279 499.986 418.127 501.364C413.966 503.184 408.367 501.682 404.375 496.612C414.489 496.581 424.676 496.96 435.405 497.341Z" fill="#FBAAB5"/>
<path d="M401.487 496.087C396.725 495.972 391.482 495.777 385.887 495.289C390.691 495.333 395.849 495.669 401.487 496.087Z" fill="#FBAAB5"/>
<path d="M382.894 494.704C381.346 494.864 379.46 494.751 377.463 494.248C379.086 494.048 380.821 494.24 382.894 494.704Z" fill="#FBAAB5"/>
<path d="M362.835 491.45C361.388 491.395 359.522 491.264 357.545 490.748C359.095 490.699 360.755 491.037 362.835 491.45Z" fill="#FBAAB5"/>
<path d="M373.577 493.541C372.734 493.669 371.608 493.537 370.402 493.052C371.313 492.892 372.304 493.087 373.577 493.541Z" fill="#FBAAB5"/>
<path d="M288.312 353.581C288.712 353.046 289.161 352.845 289.609 352.643C289.643 353.416 289.677 354.188 289.581 355.259C289.088 355.01 288.725 354.463 288.312 353.581Z" fill="#F9A1AF"/>
<path d="M347.741 487.997C348.029 488.004 347.621 488.366 347.621 488.366C347.621 488.366 347.11 488.28 346.994 488.132C346.877 487.983 347.453 487.99 347.741 487.997Z" fill="#FBAAB5"/>
<path d="M357.15 290.242C357.245 293.966 357.048 298.025 356.557 302.459C356.461 298.748 356.66 294.661 357.15 290.242Z" fill="#F9A1AF"/>
<path d="M359.333 274.839C359.172 278.761 358.595 282.816 357.729 287.238C357.932 283.394 358.425 279.183 359.333 274.839Z" fill="#F9A1AF"/>
<path d="M360.552 267.768C360.582 268.966 360.236 270.262 359.83 271.958C359.906 270.861 360.041 269.363 360.552 267.768Z" fill="#F9A1AF"/>
<path d="M519.955 331.015C518.996 330.059 518.036 329.102 516.887 327.491C516.318 326.272 515.938 325.707 515.558 325.143C515.558 325.143 515.562 325.149 515.495 324.782C514.671 323.889 513.914 323.363 513.157 322.837C513.157 322.837 513.193 322.768 513.033 322.524C512.494 322.067 512.114 321.854 511.734 321.641C510.756 320.671 509.778 319.702 508.914 318.26C509.32 317.454 509.613 317.119 509.906 316.783C519.574 320.779 528.981 325.688 538.974 328.547C552.735 332.486 566.813 335.81 580.982 337.724C606.688 341.196 632.333 338.532 657.211 331.809C668.838 328.666 679.522 322.035 691.049 316.96C684.957 327.238 678.45 337.541 671.689 348.46C671.435 349.077 671.349 349.617 671.349 349.617C671.349 349.617 671.37 349.689 671.095 349.855C670.623 350.675 670.426 351.328 670.228 351.982C670.228 351.982 670.26 352.039 669.964 352.097C669.461 352.496 669.256 352.836 669.05 353.177C669.05 353.177 669.134 353.197 668.852 353.397C668.335 354.237 668.1 354.876 667.865 355.515C667.865 355.515 667.922 355.457 667.656 355.514C667.39 355.571 666.944 355.752 666.707 355.611C666.199 356.298 665.927 357.126 665.637 357.932C665.618 357.911 665.675 357.911 665.428 358.063C664.876 358.469 664.648 358.778 664.487 359.105C664.479 359.068 664.547 359.101 664.267 359.324C663.79 360.216 663.592 360.886 663.36 361.532C663.325 361.509 663.377 361.444 663.097 361.665C662.613 362.555 662.41 363.224 662.207 363.893C662.207 363.893 662.141 363.847 661.919 363.964C661.38 364.323 661.145 364.627 660.991 364.993C660.991 364.993 660.969 364.92 660.673 365.197C659.805 367.274 659.233 369.075 658.641 370.838C658.622 370.801 658.704 370.819 658.336 371.005C657.419 372.655 656.869 374.12 656.334 375.565C656.348 375.546 656.378 375.592 655.971 375.654C653.903 379.988 652.242 384.26 650.54 388.515C650.498 388.499 650.499 388.409 650.122 388.607C649.205 390.639 648.666 392.472 648.171 394.309C648.215 394.312 648.253 394.393 647.904 394.601C644.539 402.699 640.973 410.433 638.69 418.528C637.008 424.488 635.323 429.375 628.371 430.543C626.638 430.834 625.111 432.354 623.489 433.309C611.233 438.147 598.977 442.986 586.333 447.967C585.649 447.163 585.352 446.215 585.194 444.703C585.105 443.527 584.879 442.916 584.652 442.305C584.652 442.305 584.726 442.265 584.732 441.816C583.158 436.608 581.58 431.849 580.001 427.089C580.001 427.089 580.051 427.035 580.036 426.649C579.222 424.973 578.423 423.684 577.624 422.395C577.624 422.395 577.691 422.342 577.649 422.031C577.228 421.154 576.848 420.589 576.468 420.024C576.468 420.024 576.546 420.019 576.533 419.654C576.114 418.366 575.708 417.444 575.302 416.522C575.302 416.522 575.385 416.497 575.323 416.175C574.879 415.294 574.498 414.733 574.118 414.173C574.118 414.173 574.2 414.16 574.146 413.841C573.71 412.957 573.327 412.392 572.944 411.827C572.944 411.827 573.026 411.819 572.975 411.502C572.544 410.62 572.163 410.055 571.782 409.491C571.782 409.491 571.867 409.475 571.808 409.153C571.368 408.27 570.987 407.707 570.606 407.145C570.606 407.145 570.689 407.13 570.635 406.809C570.197 405.926 569.814 405.363 569.431 404.8C569.431 404.8 569.513 404.784 569.46 404.466C569.024 403.584 568.643 403.02 568.261 402.456C568.261 402.456 568.344 402.442 568.289 402.123C567.852 401.238 567.469 400.673 567.086 400.108C567.086 400.108 567.167 400.1 567.116 399.782C566.683 398.9 566.3 398.335 565.917 397.77C565.917 397.77 566 397.75 565.944 397.433C565.508 396.552 565.127 395.989 564.747 395.425C564.747 395.425 564.831 395.415 564.775 395.095C564.339 394.212 563.96 393.649 563.58 393.085C563.58 393.085 563.665 393.099 563.645 392.742C562.815 391.498 562.006 390.611 561.197 389.724C548.401 371.34 535.605 352.956 522.587 333.875C522.05 332.834 521.735 332.492 521.42 332.15C521.42 332.15 521.485 332.124 521.281 331.889C520.703 331.442 520.329 331.229 519.955 331.015Z" fill="#FEB25C"/>
<path d="M623.953 433.205C625.11 432.354 626.637 430.834 628.37 430.542C635.322 429.374 637.007 424.488 638.689 418.528C640.972 410.432 644.538 402.699 647.826 395.038C646.853 399.575 645.608 403.883 644.363 408.192C644.363 408.192 644.376 408.246 644.093 408.48C643.619 409.724 643.429 410.735 643.238 411.746C643.238 411.746 643.268 411.748 642.926 412.014C641.1 417.57 639.616 422.86 638.132 428.15C633.561 429.8 628.989 431.451 623.953 433.205Z" fill="#FEAA4E"/>
<path d="M638.514 428.07C639.616 422.86 641.1 417.57 642.922 412.023C642.513 416.537 641.766 421.308 641.019 426.57C640.311 427.371 639.604 427.68 638.514 428.07Z" fill="#FDB8C3"/>
<path d="M644.744 408.013C645.607 403.884 646.852 399.575 648.174 394.83C648.251 394.393 648.213 394.312 648.437 394.107C649.086 393.116 649.511 392.328 650.05 391.627C650.164 391.714 650.393 391.886 650.393 391.886C648.637 397.202 646.882 402.518 644.744 408.013Z" fill="#FDB8C3"/>
<path d="M650.58 388.532C652.241 384.26 653.902 379.988 655.872 376.042C655.771 377.638 655.361 378.908 654.951 380.178C654.951 380.178 654.844 380.459 654.607 380.899C654.178 382.103 653.987 382.868 653.795 383.632C653.795 383.632 653.889 383.61 653.539 383.792C652.992 384.637 652.795 385.3 652.597 385.963C652.597 385.963 652.732 385.993 652.389 386.15C651.557 387.048 651.069 387.79 650.58 388.532Z" fill="#FEAA4E"/>
<path d="M660.653 368.287C659.809 370.542 658.966 372.797 657.705 375.201C657.288 375.35 657.154 375.222 657.259 374.847C657.809 373.254 658.255 372.036 658.702 370.819C658.702 370.819 658.62 370.8 658.887 370.62C659.653 369.721 660.153 369.004 660.653 368.287Z" fill="#FDB8C3"/>
<path d="M650.538 388.515C651.068 387.79 651.557 387.049 652.325 386.123C652.104 387.77 651.604 389.602 650.748 391.66C650.393 391.886 650.164 391.714 650.152 391.243C650.259 389.985 650.378 389.197 650.497 388.409C650.497 388.409 650.496 388.499 650.538 388.515Z" fill="#FDB8C3"/>
<path d="M655.361 380.07C655.36 378.908 655.771 377.638 656.278 375.98C656.376 375.592 656.346 375.546 656.542 375.478C656.738 375.409 657.154 375.222 657.154 375.222C657.154 375.222 657.288 375.35 657.354 375.414C656.872 376.973 656.322 378.468 655.361 380.07Z" fill="#FDB8C3"/>
<path d="M660.685 368.294C660.155 369.004 659.655 369.721 658.908 370.657C659.233 369.075 659.805 367.274 660.701 365.223C661.041 365.486 661.058 366 660.941 367.158C660.807 367.803 660.758 368.348 660.758 368.348C660.758 368.348 660.715 368.302 660.685 368.294Z" fill="#FEAA4E"/>
<path d="M666.799 357.9C666.276 359.01 665.754 360.121 664.816 361.3C664.4 361.369 664.331 361.302 664.389 360.937C664.48 360.082 664.512 359.591 664.545 359.101C664.545 359.101 664.477 359.068 664.773 359.009C665.271 358.603 665.472 358.257 665.673 357.911C665.673 357.911 665.616 357.911 665.821 357.823C666.027 357.736 666.408 357.532 666.505 357.624C666.603 357.716 666.799 357.9 666.799 357.9Z" fill="#FDB8C3"/>
<path d="M841.105 414.329C841.159 414.863 840.957 415.627 840.417 416.426C840.336 415.827 840.592 415.193 841.105 414.329Z" fill="#F594A2"/>
<path d="M643.531 411.489C643.428 410.736 643.619 409.724 644.12 408.475C644.228 409.235 644.026 410.233 643.531 411.489Z" fill="#FDB8C3"/>
<path d="M691.773 316.731C691.778 316.238 692.105 315.558 692.802 314.719C692.814 315.221 692.455 315.882 691.773 316.731Z" fill="#FEB25C"/>
<path d="M666.941 355.752C666.941 355.752 667.388 355.571 667.617 355.497C667.668 356.089 667.489 356.754 667.055 357.66C666.799 357.9 666.603 357.716 666.602 357.33C666.714 356.546 666.828 356.149 666.941 355.752Z" fill="#FDB8C3"/>
<path d="M668.137 355.297C668.097 354.876 668.332 354.237 668.821 353.365C668.854 353.781 668.633 354.43 668.137 355.297Z" fill="#FDB8C3"/>
<path d="M652.875 385.753C652.794 385.3 652.991 384.637 653.49 383.789C653.578 384.25 653.366 384.896 652.875 385.753Z" fill="#FDB8C3"/>
<path d="M654.089 383.356C653.988 382.868 654.179 382.104 654.65 381.043C654.747 381.524 654.564 382.301 654.089 383.356Z" fill="#FDB8C3"/>
<path d="M664.436 361.402C664.195 362.056 663.92 362.676 663.429 363.116C663.268 362.439 663.323 361.941 663.377 361.443C663.377 361.443 663.325 361.508 663.6 361.492C663.876 361.475 664.333 361.302 664.333 361.302C664.333 361.302 664.402 361.369 664.436 361.402Z" fill="#FDB8C3"/>
<path d="M663.095 361.665C663.321 361.941 663.267 362.439 663.138 363.305C663.063 363.674 662.64 363.806 662.423 363.849C662.408 363.224 662.611 362.555 663.095 361.665Z" fill="#FEAA4E"/>
<path d="M670.497 351.764C670.425 351.328 670.623 350.674 671.106 349.819C671.183 350.26 670.974 350.903 670.497 351.764Z" fill="#FDB8C3"/>
<path d="M660.934 368.275C660.757 368.348 660.805 367.803 660.897 367.546C661.37 367.574 661.411 367.879 660.934 368.275Z" fill="#FDB8C3"/>
<path d="M661.303 364.942C661.143 364.626 661.378 364.322 661.947 363.937C662.005 364.159 661.811 364.525 661.303 364.942Z" fill="#FEAA4E"/>
<path d="M671.518 349.543C671.349 349.617 671.434 349.076 671.534 348.822C671.97 348.869 671.988 349.17 671.518 349.543Z" fill="#FDB8C3"/>
<path d="M669.296 353.031C669.254 352.836 669.46 352.496 669.956 352.069C670.085 352.34 669.851 352.641 669.296 353.031Z" fill="#FDB8C3"/>
<path d="M648.411 240.142C654.092 234.828 660.038 235.014 662.857 240.29C664.675 243.694 664.888 247.242 661.611 249.808C658.431 252.298 654.985 254.964 650.594 251.815C646.335 248.76 645.957 244.943 648.411 240.142Z" fill="#FEAA4E"/>
<path d="M690.868 252.898C697.333 255.429 699.508 258.99 697.638 263.416C695.585 268.275 690.029 270.43 685.531 267.174C683.314 265.57 681.296 261.739 681.533 259.129C681.944 254.602 685.584 252.281 690.868 252.898Z" fill="#FEAA4E"/>
<path d="M527.79 277.701C533.075 274.004 537.209 274.127 540.365 277.851C543.341 281.361 543.149 285.046 540.038 288.254C536.84 291.552 532.881 292.235 529.044 289.446C524.759 286.332 525.444 282.217 527.79 277.701Z" fill="#FEAA4E"/>
<path d="M613.776 318.349C613.297 314.54 612.362 310.822 613.343 307.707C613.835 306.146 618.249 304.394 620.122 305.021C623.046 306 626.263 308.484 627.53 311.187C628.362 312.96 626.575 317.891 624.906 318.495C621.704 319.654 617.751 318.742 613.776 318.349Z" fill="#FEAA4E"/>
<path d="M675.881 287.894C679.337 292.852 678.519 298.271 674.325 300.728C670.34 303.063 664.816 301.349 662.885 297.179C660.833 292.746 662.62 287.538 667.377 286.337C669.837 285.716 672.807 287.113 675.881 287.894Z" fill="#FEAA4E"/>
<path d="M601.47 244.627C593.311 244.716 588.537 239.826 591.644 234.559C593.132 232.035 596.83 229.709 599.707 229.472C601.874 229.293 605.419 232.109 606.417 234.426C608.243 238.665 605.947 242.25 601.47 244.627Z" fill="#FEAA4E"/>
<path d="M590.4 272.058C587.408 278.165 583.003 280.599 579.033 277.778C576.731 276.141 574.876 272.723 574.528 269.897C574.3 268.05 576.831 264.497 578.665 264.08C581.436 263.449 584.998 264.285 587.599 265.671C589.166 266.506 589.548 269.565 590.4 272.058Z" fill="#FEAA4E"/>
<path d="M510.271 247.912C514.986 249.842 517.444 253.591 514.872 257.21C512.899 259.986 508.289 262.173 504.8 262.249C500.74 262.339 498.727 258.218 499.279 254.086C500.111 247.857 504.748 247.329 510.271 247.912Z" fill="#FEAA4E"/>
<path d="M545.638 232.892C550.85 231.634 554.503 233.734 555.857 237.907C556.535 239.995 555.223 244.217 553.49 245.245C550.942 246.756 546.98 247.116 544.071 246.32C542.335 245.845 540.217 242.036 540.512 240.061C540.888 237.542 543.527 235.36 545.638 232.892Z" fill="#FEAA4E"/>
<path d="M574.548 316.831C569.694 315.372 566.812 312.214 567.73 307.787C568.22 305.426 571.161 302.535 573.569 301.824C578.77 300.289 582.847 303.36 583.377 308.034C583.933 312.932 581.088 315.934 574.548 316.831Z" fill="#FEAA4E"/>
<path d="M632.789 265.036C636.69 267.857 637.51 271.571 635.642 275.003C634.564 276.984 631.184 279.307 629.377 278.927C626.608 278.345 623.642 275.995 622.044 273.554C621.077 272.079 621.764 267.714 623.069 266.939C625.683 265.387 629.231 265.408 632.789 265.036Z" fill="#FEAA4E"/>
<path d="M508.51 316.523C507.078 315.988 505.627 315.048 504.02 313.754C505.405 314.305 506.948 315.213 508.51 316.523Z" fill="#FEAA4E"/>
<path d="M503.752 313.108C503.522 313.203 503.144 312.995 502.582 312.514C502.8 312.429 503.202 312.617 503.752 313.108Z" fill="#FEAA4E"/>
<path d="M509.559 316.787C509.612 317.118 509.32 317.454 508.74 317.96C508.387 317.929 508.321 317.726 508.397 317.235C508.763 316.895 508.988 316.843 509.559 316.787Z" fill="#FEAA4E"/>
<path d="M579.898 427.552C581.578 431.849 583.156 436.608 584.715 441.856C583.063 437.568 581.431 432.792 579.898 427.552Z" fill="#FEAA4E"/>
<path d="M561.268 390.081C562.005 390.611 562.814 391.498 563.605 392.76C562.837 392.236 562.088 391.337 561.268 390.081Z" fill="#FEAA4E"/>
<path d="M577.635 422.798C578.421 423.684 579.22 424.973 580.002 426.673C579.206 425.79 578.427 424.495 577.635 422.798Z" fill="#FEAA4E"/>
<path d="M513.236 323.204C513.914 323.363 514.671 323.889 515.482 324.787C514.797 324.63 514.056 324.101 513.236 323.204Z" fill="#FEAA4E"/>
<path d="M575.281 416.913C575.707 417.444 576.113 418.366 576.514 419.689C576.093 419.161 575.677 418.233 575.281 416.913Z" fill="#FEAA4E"/>
<path d="M570.639 407.497C570.985 407.707 571.366 408.269 571.775 409.183C571.427 408.973 571.05 408.411 570.639 407.497Z" fill="#FEAA4E"/>
<path d="M584.643 442.682C584.878 442.916 585.105 443.528 585.129 444.335C584.828 444.041 584.731 443.55 584.643 442.682Z" fill="#FEAA4E"/>
<path d="M576.514 420.371C576.845 420.589 577.225 421.154 577.635 422.071C577.298 421.855 576.93 421.287 576.514 420.371Z" fill="#FEAA4E"/>
<path d="M379.707 420.84C379.388 420.612 378.998 420.039 378.566 419.109C378.895 419.332 379.265 419.914 379.707 420.84Z" fill="#F594A3"/>
<path d="M574.145 414.526C574.497 414.733 574.878 415.293 575.288 416.203C574.936 415.995 574.555 415.437 574.145 414.526Z" fill="#FEAA4E"/>
<path d="M572.984 412.177C573.325 412.392 573.708 412.958 574.121 413.876C573.776 413.662 573.401 413.094 572.984 412.177Z" fill="#FEAA4E"/>
<path d="M571.809 409.842C572.162 410.056 572.542 410.62 572.953 411.537C572.6 411.324 572.218 410.758 571.809 409.842Z" fill="#FEAA4E"/>
<path d="M569.467 405.151C569.813 405.363 570.196 405.926 570.607 406.842C570.257 406.63 569.88 406.066 569.467 405.151Z" fill="#FEAA4E"/>
<path d="M568.303 402.804C568.641 403.02 569.022 403.584 569.434 404.5C569.091 404.286 568.719 403.718 568.303 402.804Z" fill="#FEAA4E"/>
<path d="M567.135 400.455C567.469 400.673 567.852 401.237 568.264 402.156C567.924 401.94 567.554 401.371 567.135 400.455Z" fill="#FEAA4E"/>
<path d="M565.949 398.119C566.299 398.335 566.681 398.9 567.095 399.818C566.745 399.604 566.364 399.036 565.949 398.119Z" fill="#FEAA4E"/>
<path d="M564.777 395.775C565.126 395.989 565.506 396.552 565.917 397.467C565.568 397.254 565.189 396.689 564.777 395.775Z" fill="#FEAA4E"/>
<path d="M563.598 393.44C563.959 393.649 564.338 394.212 564.746 395.127C564.388 394.917 564.002 394.356 563.598 393.44Z" fill="#FEAA4E"/>
<path d="M515.502 325.501C515.936 325.707 516.316 326.272 516.728 327.188C516.323 326.98 515.885 326.42 515.502 325.501Z" fill="#FEAA4E"/>
<path d="M511.932 321.907C512.113 321.854 512.493 322.067 513.063 322.547C512.879 322.601 512.504 322.387 511.932 321.907Z" fill="#FEAA4E"/>
<path d="M377.334 415.047C376.95 415.115 376.835 414.82 377.144 414.326C377.285 414.21 377.321 414.768 377.334 415.047Z" fill="#F594A3"/>
<path d="M520.145 331.285C520.328 331.229 520.701 331.442 521.263 331.92C521.079 331.975 520.707 331.765 520.145 331.285Z" fill="#FEAA4E"/>
<path d="M521.512 332.492C521.734 332.492 522.049 332.834 522.478 333.517C522.262 333.516 521.933 333.176 521.512 332.492Z" fill="#FEAA4E"/>
<path d="M650.121 388.607C650.38 389.197 650.261 389.985 650.039 391.157C649.512 392.329 649.088 393.116 648.395 394.104C648.666 392.472 649.205 390.639 650.121 388.607Z" fill="#FEAA4E"/>
<path d="M657.258 374.847C657.153 375.222 656.738 375.409 656.527 375.496C656.867 374.119 657.416 372.655 658.333 371.005C658.255 372.036 657.809 373.254 657.258 374.847Z" fill="#FEAA4E"/>
<path d="M666.705 355.611C666.828 356.15 666.714 356.547 666.504 357.238C666.408 357.532 666.027 357.736 665.84 357.845C665.925 357.126 666.197 356.298 666.705 355.611Z" fill="#FEAA4E"/>
<path d="M664.391 360.937C664.333 361.302 663.876 361.475 663.635 361.515C663.592 360.886 663.789 360.216 664.267 359.324C664.514 359.591 664.482 360.082 664.391 360.937Z" fill="#FEAA4E"/>
<path d="M665.427 358.063C665.473 358.257 665.272 358.604 664.782 359.046C664.647 358.778 664.875 358.469 665.427 358.063Z" fill="#FEAA4E"/>
</svg>
