<svg width="40" height="40" viewBox="0 0 40 40" fill="none" xmlns="http://www.w3.org/2000/svg">
<g clip-path="url(#clip0_102_612)">
<rect width="40" height="40" rx="20" fill="#B1E09B"/>
<path d="M8.5 20.0996C16.3596 20.0996 23.4702 21.4976 28.6123 23.7529C31.1835 24.8806 33.2582 26.2209 34.6885 27.7041C36.1182 29.1867 36.9004 30.8072 36.9004 32.5C36.9004 34.1928 36.1182 35.8133 34.6885 37.2959C33.2582 38.7791 31.1835 40.1194 28.6123 41.2471C23.4702 43.5024 16.3596 44.9004 8.5 44.9004C0.640428 44.9004 -6.47022 43.5024 -11.6123 41.2471C-14.1835 40.1194 -16.2582 38.7791 -17.6885 37.2959C-19.1182 35.8133 -19.9004 34.1928 -19.9004 32.5C-19.9004 30.8072 -19.1182 29.1867 -17.6885 27.7041C-16.2582 26.2209 -14.1835 24.8806 -11.6123 23.7529C-6.47022 21.4976 0.640428 20.0996 8.5 20.0996Z" fill="#95CFFF" stroke="#669BFF" stroke-width="0.2"/>
<ellipse cx="5.38483" cy="3.46152" rx="5.38483" ry="3.46152" transform="matrix(1 0 0 -1 7 34.923)" fill="#FF724F"/>
<path d="M16.961 30.7878C16.2943 31.1727 16.2943 32.1349 16.961 32.5198L18.865 33.619C19.5317 34.0039 20.365 33.5228 20.365 32.753V30.5546C20.365 29.7848 19.5317 29.3037 18.865 29.6885L16.961 30.7878Z" fill="#FF724F"/>
<ellipse cx="3.58997" cy="2.30773" rx="3.58997" ry="2.30773" transform="matrix(1 0 0 -1 28 27.6154)" fill="#FF724F"/>
<path d="M35.1407 24.5699C34.474 24.9548 34.474 25.9171 35.1407 26.302L35.4101 26.4575C36.0767 26.8424 36.9101 26.3612 36.9101 25.5914V25.2804C36.9101 24.5106 36.0767 24.0295 35.4101 24.4144L35.1407 24.5699Z" fill="#FF724F"/>
<path d="M15.7965 22.675C15.8298 22.1917 15.8548 21.7667 15.8715 21.4C15.8882 21.0167 15.8965 20.6417 15.8965 20.275C15.8965 19.9083 15.8882 19.55 15.8715 19.2C15.8548 18.85 15.8215 18.5 15.7715 18.15L13.5465 17.475L13.8215 16.55C14.3882 16.5833 15.0048 16.6083 15.6715 16.625C16.3382 16.6417 17.0382 16.65 17.7715 16.65C18.4048 16.65 19.0132 16.6417 19.5965 16.625C20.1965 16.6083 20.7965 16.5833 21.3965 16.55L21.7215 17.475L19.5215 18.15C19.5048 18.55 19.4882 18.9583 19.4715 19.375C19.4548 19.775 19.4548 20.1917 19.4715 20.625C19.4715 21.125 19.4882 21.65 19.5215 22.2C19.5715 22.7333 19.6048 23.3167 19.6215 23.95C18.6548 24.25 17.6798 24.5333 16.6965 24.8C15.7132 25.05 14.5465 25.175 13.1965 25.175C11.6965 25.175 10.4132 24.9417 9.34648 24.475C8.29648 23.9917 7.44648 23.3583 6.79648 22.575C6.14648 21.775 5.66315 20.8833 5.34648 19.9C5.04648 18.9 4.89648 17.875 4.89648 16.825C4.89648 15.725 5.06315 14.6667 5.39648 13.65C5.72982 12.6167 6.23815 11.6917 6.92148 10.875C7.60482 10.0583 8.47982 9.41667 9.54648 8.95C10.6298 8.46667 11.9048 8.225 13.3715 8.225C14.4215 8.225 15.4298 8.31667 16.3965 8.5C17.3798 8.66667 18.3715 8.98333 19.3715 9.45C19.2048 10.2167 19.0465 10.975 18.8965 11.725C18.7465 12.475 18.6132 13.2417 18.4965 14.025H16.8215L16.3215 10.725C15.5215 10.3917 14.7715 10.1583 14.0715 10.025C13.3715 9.89167 12.5382 9.825 11.5715 9.825C10.6548 10.4917 9.97982 11.3833 9.54648 12.5C9.11315 13.6167 8.89648 14.9083 8.89648 16.375C8.89648 17.275 8.97982 18.1583 9.14648 19.025C9.32982 19.8917 9.59648 20.675 9.94648 21.375C10.3132 22.075 10.7715 22.6333 11.3215 23.05C11.8882 23.4667 12.5548 23.675 13.3215 23.675C13.8215 23.675 14.2632 23.5917 14.6465 23.425C15.0298 23.2417 15.4132 22.9917 15.7965 22.675Z" fill="#FF8500"/>
</g>
<defs>
<clipPath id="clip0_102_612">
<rect width="40" height="40" rx="20" fill="white"/>
</clipPath>
</defs>
</svg>
