<svg width="40" height="40" viewBox="0 0 40 40" fill="none" xmlns="http://www.w3.org/2000/svg">
<g clip-path="url(#clip0_133_252)">
<rect width="40" height="40" rx="20" fill="#8A8A8A"/>
<path d="M6.73719 20.14C6.76385 19.7533 6.78385 19.4133 6.79719 19.12C6.81052 18.8133 6.81719 18.5133 6.81719 18.22C6.81719 17.9267 6.81052 17.64 6.79719 17.36C6.78385 17.08 6.75719 16.8 6.71719 16.52L4.93719 15.98L5.15719 15.24C5.61052 15.2667 6.10385 15.2867 6.63719 15.3C7.17052 15.3133 7.73052 15.32 8.31719 15.32C8.82385 15.32 9.31052 15.3133 9.77719 15.3C10.2572 15.2867 10.7372 15.2667 11.2172 15.24L11.4772 15.98L9.71719 16.52C9.70385 16.84 9.69052 17.1667 9.67719 17.5C9.66385 17.82 9.66385 18.1533 9.67719 18.5C9.67719 18.9 9.69052 19.32 9.71719 19.76C9.75719 20.1867 9.78385 20.6533 9.79719 21.16C9.02385 21.4 8.24385 21.6267 7.45719 21.84C6.67052 22.04 5.73719 22.14 4.65719 22.14C3.45719 22.14 2.43052 21.9533 1.57719 21.58C0.737188 21.1933 0.0571877 20.6867 -0.462812 20.06C-0.982812 19.42 -1.36948 18.7067 -1.62281 17.92C-1.86281 17.12 -1.98281 16.3 -1.98281 15.46C-1.98281 14.58 -1.84948 13.7333 -1.58281 12.92C-1.31615 12.0933 -0.909479 11.3533 -0.362812 10.7C0.183854 10.0467 0.883854 9.53333 1.73719 9.16C2.60385 8.77333 3.62385 8.58 4.79719 8.58C5.63719 8.58 6.44385 8.65333 7.21719 8.8C8.00385 8.93333 8.79719 9.18667 9.59719 9.56C9.46385 10.1733 9.33719 10.78 9.21719 11.38C9.09719 11.98 8.99052 12.5933 8.89719 13.22H7.55719L7.15719 10.58C6.51719 10.3133 5.91719 10.1267 5.35719 10.02C4.79719 9.91333 4.13052 9.86 3.35719 9.86C2.62385 10.3933 2.08385 11.1067 1.73719 12C1.39052 12.8933 1.21719 13.9267 1.21719 15.1C1.21719 15.82 1.28385 16.5267 1.41719 17.22C1.56385 17.9133 1.77719 18.54 2.05719 19.1C2.35052 19.66 2.71719 20.1067 3.15719 20.44C3.61052 20.7733 4.14385 20.94 4.75719 20.94C5.15719 20.94 5.51052 20.8733 5.81719 20.74C6.12385 20.5933 6.43052 20.3933 6.73719 20.14Z" fill="white"/>
<path d="M39.8558 31.21C39.8958 30.63 39.9258 30.12 39.9458 29.68C39.9658 29.22 39.9758 28.77 39.9758 28.33C39.9758 27.89 39.9658 27.46 39.9458 27.04C39.9258 26.62 39.8858 26.2 39.8258 25.78L37.1558 24.97L37.4858 23.86C38.1658 23.9 38.9058 23.93 39.7058 23.95C40.5058 23.97 41.3458 23.98 42.2258 23.98C42.9858 23.98 43.7158 23.97 44.4158 23.95C45.1358 23.93 45.8558 23.9 46.5758 23.86L46.9658 24.97L44.3258 25.78C44.3058 26.26 44.2858 26.75 44.2658 27.25C44.2458 27.73 44.2458 28.23 44.2658 28.75C44.2658 29.35 44.2858 29.98 44.3258 30.64C44.3858 31.28 44.4258 31.98 44.4458 32.74C43.2858 33.1 42.1158 33.44 40.9358 33.76C39.7558 34.06 38.3558 34.21 36.7358 34.21C34.9358 34.21 33.3958 33.93 32.1158 33.37C30.8558 32.79 29.8358 32.03 29.0558 31.09C28.2758 30.13 27.6958 29.06 27.3158 27.88C26.9558 26.68 26.7758 25.45 26.7758 24.19C26.7758 22.87 26.9758 21.6 27.3758 20.38C27.7758 19.14 28.3858 18.03 29.2058 17.05C30.0258 16.07 31.0758 15.3 32.3558 14.74C33.6558 14.16 35.1858 13.87 36.9458 13.87C38.2058 13.87 39.4158 13.98 40.5758 14.2C41.7558 14.4 42.9458 14.78 44.1458 15.34C43.9458 16.26 43.7558 17.17 43.5758 18.07C43.3958 18.97 43.2358 19.89 43.0958 20.83H41.0858L40.4858 16.87C39.5258 16.47 38.6258 16.19 37.7858 16.03C36.9458 15.87 35.9458 15.79 34.7858 15.79C33.6858 16.59 32.8758 17.66 32.3558 19C31.8358 20.34 31.5758 21.89 31.5758 23.65C31.5758 24.73 31.6758 25.79 31.8758 26.83C32.0958 27.87 32.4158 28.81 32.8358 29.65C33.2758 30.49 33.8258 31.16 34.4858 31.66C35.1658 32.16 35.9658 32.41 36.8858 32.41C37.4858 32.41 38.0158 32.31 38.4758 32.11C38.9358 31.89 39.3958 31.59 39.8558 31.21Z" fill="white"/>
<path d="M21.0728 24.861C21.1034 24.4163 21.1264 24.0253 21.1418 23.688C21.1571 23.3353 21.1648 22.9903 21.1648 22.653C21.1648 22.3157 21.1571 21.986 21.1418 21.664C21.1264 21.342 21.0958 21.02 21.0498 20.698L19.0028 20.077L19.2558 19.226C19.7771 19.2567 20.3444 19.2797 20.9578 19.295C21.5711 19.3103 22.2151 19.318 22.8898 19.318C23.4724 19.318 24.0321 19.3103 24.5688 19.295C25.1208 19.2797 25.6728 19.2567 26.2248 19.226L26.5238 20.077L24.4998 20.698C24.4844 21.066 24.4691 21.4417 24.4538 21.825C24.4384 22.193 24.4384 22.5763 24.4538 22.975C24.4538 23.435 24.4691 23.918 24.4998 24.424C24.5458 24.9147 24.5764 25.4513 24.5918 26.034C23.7024 26.31 22.8054 26.5707 21.9008 26.816C20.9961 27.046 19.9228 27.161 18.6808 27.161C17.3008 27.161 16.1201 26.9463 15.1388 26.517C14.1728 26.0723 13.3908 25.4897 12.7928 24.769C12.1948 24.033 11.7501 23.2127 11.4588 22.308C11.1828 21.388 11.0448 20.445 11.0448 19.479C11.0448 18.467 11.1981 17.4933 11.5048 16.558C11.8114 15.6073 12.2791 14.7563 12.9078 14.005C13.5364 13.2537 14.3414 12.6633 15.3228 12.234C16.3194 11.7893 17.4924 11.567 18.8418 11.567C19.8078 11.567 20.7354 11.6513 21.6248 11.82C22.5294 11.9733 23.4418 12.2647 24.3618 12.694C24.2084 13.3993 24.0628 14.097 23.9248 14.787C23.7868 15.477 23.6641 16.1823 23.5568 16.903H22.0158L21.5558 13.867C20.8198 13.5603 20.1298 13.3457 19.4858 13.223C18.8418 13.1003 18.0751 13.039 17.1858 13.039C16.3424 13.6523 15.7214 14.4727 15.3228 15.5C14.9241 16.5273 14.7248 17.7157 14.7248 19.065C14.7248 19.893 14.8014 20.7057 14.9548 21.503C15.1234 22.3003 15.3688 23.021 15.6908 23.665C16.0281 24.309 16.4498 24.8227 16.9558 25.206C17.4771 25.5893 18.0904 25.781 18.7958 25.781C19.2558 25.781 19.6621 25.7043 20.0148 25.551C20.3674 25.3823 20.7201 25.1523 21.0728 24.861Z" fill="white"/>
</g>
<defs>
<clipPath id="clip0_133_252">
<rect width="40" height="40" rx="20" fill="white"/>
</clipPath>
</defs>
</svg>
