<svg width="40" height="40" viewBox="0 0 40 40" fill="none" xmlns="http://www.w3.org/2000/svg">
<g clip-path="url(#clip0_102_616)">
<rect width="40" height="40" rx="20" fill="#FDF9D8"/>
<ellipse cx="32.1489" cy="49.4219" rx="35.1489" ry="35.1493" fill="#D1F0FF"/>
<ellipse cx="61.852" cy="44.1493" rx="35.1489" ry="35.1493" fill="#D1F0FF"/>
<ellipse cx="32.1489" cy="54.4219" rx="35.1489" ry="35.1493" fill="#98BADA"/>
<ellipse cx="32.1489" cy="59.4219" rx="35.1489" ry="35.1493" fill="#B2EAF5"/>
<ellipse cx="61.852" cy="54.1493" rx="35.1489" ry="35.1493" fill="#B2EAF5"/>
<ellipse cx="61.852" cy="59.1493" rx="35.1489" ry="35.1493" fill="#FFE5E6"/>
<path d="M22.8558 27.21C22.8958 26.63 22.9258 26.12 22.9458 25.68C22.9658 25.22 22.9758 24.77 22.9758 24.33C22.9758 23.89 22.9658 23.46 22.9458 23.04C22.9258 22.62 22.8858 22.2 22.8258 21.78L20.1558 20.97L20.4858 19.86C21.1658 19.9 21.9058 19.93 22.7058 19.95C23.5058 19.97 24.3458 19.98 25.2258 19.98C25.9858 19.98 26.7158 19.97 27.4158 19.95C28.1358 19.93 28.8558 19.9 29.5758 19.86L29.9658 20.97L27.3258 21.78C27.3058 22.26 27.2858 22.75 27.2658 23.25C27.2458 23.73 27.2458 24.23 27.2658 24.75C27.2658 25.35 27.2858 25.98 27.3258 26.64C27.3858 27.28 27.4258 27.98 27.4458 28.74C26.2858 29.1 25.1158 29.44 23.9358 29.76C22.7558 30.06 21.3558 30.21 19.7358 30.21C17.9358 30.21 16.3958 29.93 15.1158 29.37C13.8558 28.79 12.8358 28.03 12.0558 27.09C11.2758 26.13 10.6958 25.06 10.3158 23.88C9.95578 22.68 9.77578 21.45 9.77578 20.19C9.77578 18.87 9.97578 17.6 10.3758 16.38C10.7758 15.14 11.3858 14.03 12.2058 13.05C13.0258 12.07 14.0758 11.3 15.3558 10.74C16.6558 10.16 18.1858 9.87 19.9458 9.87C21.2058 9.87 22.4158 9.98 23.5758 10.2C24.7558 10.4 25.9458 10.78 27.1458 11.34C26.9458 12.26 26.7558 13.17 26.5758 14.07C26.3958 14.97 26.2358 15.89 26.0958 16.83H24.0858L23.4858 12.87C22.5258 12.47 21.6258 12.19 20.7858 12.03C19.9458 11.87 18.9458 11.79 17.7858 11.79C16.6858 12.59 15.8758 13.66 15.3558 15C14.8358 16.34 14.5758 17.89 14.5758 19.65C14.5758 20.73 14.6758 21.79 14.8758 22.83C15.0958 23.87 15.4158 24.81 15.8358 25.65C16.2758 26.49 16.8258 27.16 17.4858 27.66C18.1658 28.16 18.9658 28.41 19.8858 28.41C20.4858 28.41 21.0158 28.31 21.4758 28.11C21.9358 27.89 22.3958 27.59 22.8558 27.21Z" fill="#3E8BFF"/>
</g>
<defs>
<clipPath id="clip0_102_616">
<rect width="40" height="40" rx="20" fill="white"/>
</clipPath>
</defs>
</svg>
