<svg width="40" height="40" viewBox="0 0 40 40" fill="none" xmlns="http://www.w3.org/2000/svg">
<g clip-path="url(#clip0_102_615)">
<rect width="40" height="40" rx="20" fill="#FAD0BC"/>
<line x1="34.3864" y1="12.2565" x2="20.7056" y2="49.8442" stroke="white" stroke-width="1.5"/>
<path d="M19.6779 11.605C19.6979 11.315 19.7129 11.06 19.7229 10.84C19.7329 10.61 19.7379 10.385 19.7379 10.165C19.7379 9.945 19.7329 9.73 19.7229 9.52C19.7129 9.31 19.6929 9.1 19.6629 8.89L18.3279 8.485L18.4929 7.93C18.8329 7.95 19.2029 7.965 19.6029 7.975C20.0029 7.985 20.4229 7.99 20.8629 7.99C21.2429 7.99 21.6079 7.985 21.9579 7.975C22.3179 7.965 22.6779 7.95 23.0379 7.93L23.2329 8.485L21.9129 8.89C21.9029 9.13 21.8929 9.375 21.8829 9.625C21.8729 9.865 21.8729 10.115 21.8829 10.375C21.8829 10.675 21.8929 10.99 21.9129 11.32C21.9429 11.64 21.9629 11.99 21.9729 12.37C21.3929 12.55 20.8079 12.72 20.2179 12.88C19.6279 13.03 18.9279 13.105 18.1179 13.105C17.2179 13.105 16.4479 12.965 15.8079 12.685C15.1779 12.395 14.6679 12.015 14.2779 11.545C13.8879 11.065 13.5979 10.53 13.4079 9.94C13.2279 9.34 13.1379 8.725 13.1379 8.095C13.1379 7.435 13.2379 6.8 13.4379 6.19C13.6379 5.57 13.9429 5.015 14.3529 4.525C14.7629 4.035 15.2879 3.65 15.9279 3.37C16.5779 3.08 17.3429 2.935 18.2229 2.935C18.8529 2.935 19.4579 2.99 20.0379 3.1C20.6279 3.2 21.2229 3.39 21.8229 3.67C21.7229 4.13 21.6279 4.585 21.5379 5.035C21.4479 5.485 21.3679 5.945 21.2979 6.415H20.2929L19.9929 4.435C19.5129 4.235 19.0629 4.095 18.6429 4.015C18.2229 3.935 17.7229 3.895 17.1429 3.895C16.5929 4.295 16.1879 4.83 15.9279 5.5C15.6679 6.17 15.5379 6.945 15.5379 7.825C15.5379 8.365 15.5879 8.895 15.6879 9.415C15.7979 9.935 15.9579 10.405 16.1679 10.825C16.3879 11.245 16.6629 11.58 16.9929 11.83C17.3329 12.08 17.7329 12.205 18.1929 12.205C18.4929 12.205 18.7579 12.155 18.9879 12.055C19.2179 11.945 19.4479 11.795 19.6779 11.605Z" fill="white"/>
<path d="M7.96418 9.411L8.08118 9.06C8.29718 9.072 8.50718 9.081 8.71118 9.087C8.91518 9.093 9.15818 9.096 9.44018 9.096C9.69818 9.096 9.96518 9.093 10.2412 9.087C10.5172 9.081 10.7812 9.072 11.0332 9.06L11.1592 9.411L10.1332 9.618C10.1272 10.116 10.1242 10.566 10.1242 10.968C10.1242 11.37 10.1242 11.775 10.1242 12.183C10.1242 12.495 10.1212 12.855 10.1152 13.263C10.1152 13.665 10.1212 14.037 10.1332 14.379C10.5052 14.421 10.8502 14.43 11.1682 14.406C11.4922 14.382 11.7832 14.313 12.0412 14.199L12.2482 13.11H12.8242C12.8242 13.386 12.8302 13.698 12.8422 14.046C12.8602 14.388 12.8812 14.706 12.9052 15C12.1732 14.988 11.5222 14.982 10.9522 14.982C10.3822 14.976 9.89018 14.973 9.47618 14.973C9.17018 14.973 8.90618 14.976 8.68418 14.982C8.46818 14.988 8.26718 14.994 8.08118 15L7.97318 14.658L8.77418 14.469C8.78618 13.995 8.79518 13.584 8.80118 13.236C8.81318 12.882 8.81918 12.561 8.81918 12.273C8.81918 11.865 8.81918 11.445 8.81918 11.013C8.82518 10.575 8.81018 10.113 8.77418 9.627L7.96418 9.411Z" fill="white"/>
<path d="M8.29243 24.4C8.2851 25.126 8.28143 25.7713 8.28143 26.336C8.28143 26.8933 8.28143 27.425 8.28143 27.931C8.28143 28.305 8.28143 28.679 8.28143 29.053C8.28143 29.427 8.2851 29.8413 8.29243 30.296L9.45843 30.582L9.31543 31C9.12476 30.9853 8.8571 30.978 8.51243 30.978C8.1751 30.9707 7.83043 30.967 7.47843 30.967C7.1411 30.967 6.8001 30.9707 6.45543 30.978C6.1181 30.9853 5.83576 30.9927 5.60843 31L5.45443 30.582L6.64243 30.296C6.6571 29.7533 6.6681 29.2583 6.67543 28.811C6.6901 28.3563 6.69743 27.898 6.69743 27.436C6.69743 27.0033 6.6901 26.5413 6.67543 26.05C6.6681 25.5513 6.6571 25.0013 6.64243 24.4H8.29243ZM10.8004 23.74C10.7491 24.1873 10.7161 24.6163 10.7014 25.027C10.6868 25.4303 10.6794 25.8043 10.6794 26.149H9.96443L9.67843 24.554C9.55376 24.5393 9.41443 24.532 9.26043 24.532C9.10643 24.5247 8.95243 24.521 8.79843 24.521C8.5711 24.521 8.34376 24.5283 8.11643 24.543C7.8891 24.5577 7.68376 24.5833 7.50043 24.62C7.30976 24.5833 7.09343 24.5613 6.85143 24.554C6.60943 24.5393 6.36743 24.532 6.12543 24.532C5.9861 24.532 5.85043 24.5357 5.71843 24.543C5.58643 24.543 5.46176 24.5467 5.34443 24.554L5.05843 26.149H4.34343C4.3361 25.8043 4.32143 25.434 4.29943 25.038C4.27743 24.642 4.24443 24.2093 4.20043 23.74C4.44976 23.7473 4.7541 23.7547 5.11343 23.762C5.4801 23.7693 5.87243 23.7767 6.29043 23.784C6.71576 23.784 7.14476 23.784 7.57743 23.784C8.01743 23.784 8.44276 23.784 8.85343 23.784C9.2641 23.7767 9.6381 23.7693 9.97543 23.762C10.3128 23.7547 10.5878 23.7473 10.8004 23.74Z" fill="white"/>
<path d="M17.3305 36C17.1772 35.8667 17.0539 35.7133 16.9605 35.54C17.2939 35.0267 17.6172 34.5133 17.9305 34C18.2439 33.4867 18.5372 32.99 18.8105 32.51C19.0839 32.03 19.3272 31.5867 19.5405 31.18C19.7539 30.7733 19.9239 30.42 20.0505 30.12C19.9572 30.1067 19.8672 30.1 19.7805 30.1C19.6939 30.1 19.6072 30.1 19.5205 30.1C19.3072 30.1 19.1005 30.1133 18.9005 30.14C18.7005 30.16 18.5205 30.1967 18.3605 30.25C18.2539 30.4367 18.1605 30.6167 18.0805 30.79C18.0005 30.9567 17.9205 31.1533 17.8405 31.38H17.2305C17.2572 31.0533 17.2772 30.7233 17.2905 30.39C17.3039 30.0567 17.3139 29.7267 17.3205 29.4C17.7339 29.4067 18.1239 29.4133 18.4905 29.42C18.8572 29.42 19.2139 29.42 19.5605 29.42C19.9072 29.42 20.2472 29.42 20.5805 29.42C20.9205 29.4133 21.2672 29.4067 21.6205 29.4C21.6739 29.4733 21.7272 29.56 21.7805 29.66C21.8339 29.7533 21.8772 29.84 21.9105 29.92C21.2372 30.9933 20.6472 31.97 20.1405 32.85C19.6405 33.73 19.2139 34.5567 18.8605 35.33C18.9405 35.3367 19.0205 35.3433 19.1005 35.35C19.1872 35.35 19.2705 35.35 19.3505 35.35C19.5972 35.35 19.8372 35.3367 20.0705 35.31C20.3105 35.2767 20.5139 35.2333 20.6805 35.18C20.8005 35.0267 20.9239 34.8333 21.0505 34.6C21.1772 34.3667 21.2939 34.1467 21.4005 33.94L22.0405 34.14C21.9539 34.4667 21.8772 34.7867 21.8105 35.1C21.7505 35.4133 21.6939 35.7133 21.6405 36C21.3139 35.9867 20.9539 35.98 20.5605 35.98C20.1739 35.98 19.7839 35.98 19.3905 35.98C18.9972 35.98 18.6205 35.98 18.2605 35.98C17.9005 35.98 17.5905 35.9867 17.3305 36Z" fill="white"/>
<path d="M23.576 16.38L23.667 16.653L23.03 16.821C23.03 17.2177 23.0276 17.5677 23.023 17.871C23.023 18.1743 23.023 18.4613 23.023 18.732C23.023 18.998 23.023 19.278 23.023 19.572C23.023 19.866 23.0253 20.2043 23.03 20.587L23.667 20.734L23.576 21C23.324 20.986 22.9693 20.979 22.512 20.979C22.2973 20.979 22.099 20.9813 21.917 20.986C21.735 20.9907 21.5716 20.9953 21.427 21L21.336 20.734L21.98 20.587C21.9893 20.209 21.9963 19.873 22.001 19.579C22.0103 19.285 22.015 19.005 22.015 18.739C22.015 18.4683 22.0126 18.1813 22.008 17.878C22.0033 17.57 21.994 17.2177 21.98 16.821L21.336 16.653L21.427 16.38C21.609 16.3893 21.7863 16.3963 21.959 16.401C22.1316 16.4057 22.3253 16.408 22.54 16.408C22.7313 16.408 22.9203 16.4057 23.107 16.401C23.2936 16.3917 23.45 16.3847 23.576 16.38Z" fill="white"/>
</g>
<defs>
<clipPath id="clip0_102_615">
<rect width="40" height="40" rx="20" fill="white"/>
</clipPath>
</defs>
</svg>
