<svg width="40" height="40" viewBox="0 0 40 40" fill="none" xmlns="http://www.w3.org/2000/svg">
<circle cx="20" cy="20" r="19.5" fill="black" stroke="black"/>
<path d="M26.4503 16.873C27.6491 17.5918 28.8823 18.1159 30.2742 18.2829C30.9971 18.3696 31.7205 18.5118 32.368 18.8759C33.1989 19.3432 33.2112 20.189 32.4009 20.7037C31.7733 21.1023 31.0442 21.1154 30.3422 21.2364C27.7395 21.6851 25.6818 22.9112 24.1061 24.9709C22.8192 26.6532 22.469 28.6262 21.8968 30.5404C21.8208 30.7945 21.7828 31.0592 21.7027 31.3118C21.5916 31.6622 21.3651 31.9237 20.9644 31.9779C20.5267 32.0371 20.1102 31.9972 19.8271 31.6086C19.4121 31.0389 19.145 30.415 19.0188 29.7278C18.7066 28.0263 18.3527 26.3414 17.1258 24.9634C15.9598 23.6539 14.8158 22.3175 13.0397 21.7255C12.1057 21.4142 11.1361 21.2015 10.1967 20.9036C9.6732 20.7376 9.16875 20.5072 8.67444 20.2702C8.27396 20.0782 7.98786 19.7415 8.0004 19.3096C8.01218 18.9038 8.35145 18.65 8.7183 18.488C9.41848 18.1787 10.1978 18.1355 10.9276 17.9214C13.5073 17.1644 15.917 16.1637 17.4875 13.9006C18.1459 12.952 18.4382 11.8687 18.8373 10.8211C19.1946 9.88285 19.116 8.84605 19.586 7.93709C19.7447 7.63011 19.8874 7.32292 20.2226 7.13329C20.5898 6.92551 20.9103 6.95972 21.1957 7.24248C21.5701 7.6134 21.7864 8.05863 21.8157 8.57895C21.9805 11.5032 23.1871 13.9813 25.3525 16.0392C25.6736 16.3443 26.0632 16.584 26.4503 16.873ZM23.4131 17.4786C22.2669 16.3261 21.2548 15.0802 20.516 13.583C19.5707 14.7651 19.0665 16.1372 18.0103 17.1561C16.9431 18.1857 15.5233 18.7265 14.2895 19.5955C16.9535 21.1552 19.3722 22.8984 20.4833 25.9298C22.1038 23.2796 23.9787 21.0891 26.9034 19.8033C25.614 19.1112 24.4282 18.4663 23.4131 17.4786Z" fill="white"/>
</svg>
