<svg width="40" height="40" viewBox="0 0 40 40" fill="none" xmlns="http://www.w3.org/2000/svg">
<rect width="40" height="40" rx="20" fill="url(#paint0_linear_102_613)"/>
<path d="M13.034 32.3502C20.0987 33.4861 26.9609 33.3535 33.4972 30.1563C34.4395 29.6954 35.3231 28.9587 36.0349 28.1561C37.3551 26.6675 37.3412 24.8668 35.8673 23.5571C34.6553 22.4801 33.24 21.5557 31.7757 20.9103C29.0568 19.7122 26.147 19.2455 23.2024 19.0311C22.4847 18.9789 22.0566 19.1677 21.7242 19.8594C21.2472 20.8519 20.6635 21.7882 20.0425 22.8963C19.4396 21.8026 18.8738 20.8669 18.3984 19.8833C18.0587 19.1805 17.6652 18.9434 16.8675 19.0111C13.5779 19.2901 10.354 19.8528 7.32725 21.2716C6.30032 21.753 5.30432 22.3902 4.43258 23.1342C2.60351 24.6951 2.49308 26.9635 4.29078 28.5435C5.45567 29.5673 6.8582 30.3782 8.27142 30.9852C9.75645 31.6229 11.3812 31.9037 13.034 32.3502Z" fill="#67B473"/>
<path d="M23.3558 23.21C23.3958 22.63 23.4258 22.12 23.4458 21.68C23.4658 21.22 23.4758 20.77 23.4758 20.33C23.4758 19.89 23.4658 19.46 23.4458 19.04C23.4258 18.62 23.3858 18.2 23.3258 17.78L20.6558 16.97L20.9858 15.86C21.6658 15.9 22.4058 15.93 23.2058 15.95C24.0058 15.97 24.8458 15.98 25.7258 15.98C26.4858 15.98 27.2158 15.97 27.9158 15.95C28.6358 15.93 29.3558 15.9 30.0758 15.86L30.4658 16.97L27.8258 17.78C27.8058 18.26 27.7858 18.75 27.7658 19.25C27.7458 19.73 27.7458 20.23 27.7658 20.75C27.7658 21.35 27.7858 21.98 27.8258 22.64C27.8858 23.28 27.9258 23.98 27.9458 24.74C26.7858 25.1 25.6158 25.44 24.4358 25.76C23.2558 26.06 21.8558 26.21 20.2358 26.21C18.4358 26.21 16.8958 25.93 15.6158 25.37C14.3558 24.79 13.3358 24.03 12.5558 23.09C11.7758 22.13 11.1958 21.06 10.8158 19.88C10.4558 18.68 10.2758 17.45 10.2758 16.19C10.2758 14.87 10.4758 13.6 10.8758 12.38C11.2758 11.14 11.8858 10.03 12.7058 9.05C13.5258 8.07 14.5758 7.3 15.8558 6.74C17.1558 6.16 18.6858 5.87 20.4458 5.87C21.7058 5.87 22.9158 5.98 24.0758 6.2C25.2558 6.4 26.4458 6.78 27.6458 7.34C27.4458 8.26 27.2558 9.17 27.0758 10.07C26.8958 10.97 26.7358 11.89 26.5958 12.83H24.5858L23.9858 8.87C23.0258 8.47 22.1258 8.19 21.2858 8.03C20.4458 7.87 19.4458 7.79 18.2858 7.79C17.1858 8.59 16.3758 9.66 15.8558 11C15.3358 12.34 15.0758 13.89 15.0758 15.65C15.0758 16.73 15.1758 17.79 15.3758 18.83C15.5958 19.87 15.9158 20.81 16.3358 21.65C16.7758 22.49 17.3258 23.16 17.9858 23.66C18.6658 24.16 19.4658 24.41 20.3858 24.41C20.9858 24.41 21.5158 24.31 21.9758 24.11C22.4358 23.89 22.8958 23.59 23.3558 23.21Z" fill="#FE7488"/>
<defs>
<linearGradient id="paint0_linear_102_613" x1="20" y1="0" x2="20" y2="40" gradientUnits="userSpaceOnUse">
<stop stop-color="#FFFDDA"/>
<stop offset="1" stop-color="#BBFFD9"/>
</linearGradient>
</defs>
</svg>
