<svg width="682" height="612" viewBox="0 0 682 612" fill="none" xmlns="http://www.w3.org/2000/svg">
<path d="M531.765 528.377C526.663 532.353 521.643 535.924 515.965 539.398C508.526 539.901 503.448 542.835 501.16 549.598C501.16 549.598 501.101 549.554 500.645 549.549C494.196 551.141 489.742 550.772 489.722 542.729C489.718 541.346 487.025 539.528 485.214 538.672C479.192 535.825 478.023 527.541 470.839 526.019C470.554 525.959 470.592 524.12 470.572 523.108C470.532 521.074 470.469 519.035 470.573 517.006C470.801 512.558 469.543 509.64 464.432 508.942C463.039 508.752 461.411 506.154 460.94 504.382C460.333 502.101 460.7 499.536 460.795 497.099C460.959 492.87 459.659 490.142 454.89 489.477C453.461 489.278 451.42 487.194 451.201 485.743C450.477 480.924 447.276 479.724 443.302 478.582C441.527 478.071 439.964 476.157 438.754 474.544C437.569 472.963 436.672 471.03 436.168 469.115C435.623 467.044 434.737 464.213 435.659 462.774C437.993 459.127 441.046 455.855 444.194 452.829C449.854 447.387 456.136 442.554 461.494 436.845C464.867 433.252 466.345 427.784 469.909 424.492C474.584 420.174 473.997 412.187 480.939 409.724C481.432 409.549 481.284 407.82 481.611 406.875C482.132 405.371 482.381 403.25 483.481 402.56C487.916 399.777 487.693 395.642 487.768 391.292C487.803 389.257 488.414 385.89 489.614 385.452C494.443 383.69 493.709 380.016 493.788 376.411C493.909 370.899 492.586 365.282 498.755 361.247C501.997 359.127 499.581 354.189 495.832 352.745C493.613 351.89 490.892 349.71 490.38 347.637C489.475 343.968 487.649 343.026 484.404 343.139C482.371 343.209 480.331 343.089 478.297 343.159C474.232 343.3 471.072 342.493 470.551 337.545C469.535 327.9 470.631 325.389 475.997 323.459C477.756 322.827 479.959 320.48 480.003 318.863C480.048 317.234 477.984 314.637 476.286 314.033C470.167 311.86 469.533 309.662 472.371 303.74C473.593 301.19 473.461 297.068 472.222 294.484C470.427 290.74 470.437 288.07 472.235 284.33C473.474 281.753 472.779 278.106 472.477 274.982C472.294 273.088 471.52 271.075 470.453 269.491C469.293 267.769 467.581 265.357 465.944 265.219C461.399 264.838 460.676 262.401 460.748 258.679C460.863 252.782 461.118 246.849 460.57 241.001C460.393 239.115 458.164 236.388 456.368 235.899C452.456 234.833 450.935 232.785 450.995 229.007C451.04 226.16 451.37 223.232 450.811 220.495C450.489 218.915 448.766 216.557 447.478 216.422C441.907 215.84 441.023 212.458 441.193 207.877C441.337 204.018 441.444 200.133 441.16 196.289C440.879 192.495 443.091 187.951 436.239 186.353C433.11 185.624 431.561 178.519 428.362 177.619C420.717 175.469 420.788 165.017 412.511 164.368C412.344 164.355 412.107 163.651 412.113 163.273C412.277 153.231 403.658 149.382 397.204 147.104C386.176 143.211 374.063 142.235 362.332 140.553C357.344 139.838 352.169 140.441 347.079 140.432C341.852 140.422 336.532 141.213 332.197 136.853C331.189 135.838 328.771 135.853 327.047 135.984C319.809 136.531 312.58 137.227 305.364 138.019C300.784 138.521 296.197 139.103 291.681 139.993C287.554 140.805 285.158 139.238 284.912 135.266C284.666 131.284 283.458 128.777 279.174 127.969C277.695 127.69 275.458 125.991 275.406 124.856C275.329 123.158 276.543 121.067 277.822 119.73C279.209 118.279 281.299 117.5 283.083 116.428C282.892 115.909 282.702 115.389 282.511 114.87C276.092 115.813 269.608 116.449 263.276 117.801C258.725 118.773 256.541 117.666 255.24 113.08C254.73 111.28 252.106 109.588 250.079 108.849C248.102 108.128 245.654 108.608 243.418 108.699C239.238 108.867 236.514 107.677 235.635 102.927C235.344 101.351 232.679 99.7024 230.773 99.0748C228.752 98.409 226.339 98.8223 224.105 98.933C219.643 99.154 216.742 97.8792 216.046 92.7796C215.857 91.3929 213.236 89.6944 211.476 89.3131C208.752 88.723 205.713 89.5825 202.989 88.9916C200.882 88.5346 197.498 86.9616 197.354 85.6027C196.444 76.9886 189.103 78.4321 184.116 77.2833C181.768 76.7426 178.643 79.948 175.768 81.228C171.877 82.9607 168.901 87.3777 163.723 85.4566C169.299 80.5463 174.403 74.9222 180.548 70.8736C193.527 62.3213 207.049 54.5927 220.78 46.4584C229.894 42.7923 238.577 39.194 247.803 35.9587C250.291 37.1385 252.479 38.9815 254.139 38.5892C260.317 37.1281 266.685 35.6616 272.316 32.8603C283.795 27.1492 296.064 25.8533 308.45 24.2698C314.109 23.5462 319.557 21.1744 325.102 19.5501C325.102 19.5501 325.701 19.54 326.323 19.5391C327.158 19.5369 327.372 19.5356 327.586 19.5343C327.586 19.5343 328.188 19.5391 328.877 19.8683C331.36 20.3859 333.166 20.813 334.947 20.7271C363.6 19.3444 391.662 23.6985 419.557 29.4955C421.635 29.9274 423.419 31.7747 424.808 32.9675C421.856 32.7786 419.43 32.637 417.016 32.3855C403.571 30.9852 390.132 29.5401 376.686 28.1542C373.621 27.8382 370.441 27.1108 367.485 27.603C362.465 28.4393 355.852 28.5254 352.966 31.7008C344.516 40.9968 347.744 54.7333 358.729 62.0943C359.543 62.6396 360.283 63.4158 360.814 64.2413C365.387 71.3536 368.601 79.7914 378.38 81.7234C379.044 81.8546 379.91 82.6908 380.077 83.3513C382.034 91.127 388.295 91.0212 394.451 91.792C396.307 92.0243 397.872 94.5698 399.57 96.0556C397.484 96.9065 395.449 98.284 393.301 98.4895C389.738 98.8304 386.052 97.9932 382.512 98.4261C377.731 99.0108 373.075 100.564 368.302 101.28C358.901 102.691 349.398 103.484 340.048 105.153C332.511 106.499 325.106 108.647 317.718 110.714C316.427 111.075 315.168 112.648 314.61 113.964C314.4 114.459 316.074 116.409 317.148 116.683C324.742 118.62 332.391 120.349 340.055 121.992C341.156 122.228 342.427 121.529 343.629 121.474C345.206 121.401 346.891 121.205 348.359 121.637C362.353 125.75 376.31 129.987 390.279 134.182C407.202 139.264 423.614 146.251 437.479 156.8C450.991 167.08 464.366 177.917 475.126 191.682C488.514 208.81 500.098 226.93 508.276 246.915C513.883 260.619 518.041 274.885 519.867 289.917C521.776 305.628 524.287 321.14 521.887 336.976C520.711 344.737 520.375 352.709 518.349 360.233C516.435 367.34 513.077 374.117 509.871 380.808C503.84 393.394 497.919 406.07 491.099 418.232C483.967 430.952 475.776 443.078 468.207 455.561C467.319 457.025 467.444 459.103 466.935 461.753C480.682 457.628 491.21 450.074 500.984 441.995C516.517 429.157 528.096 412.729 538.938 395.839C541.083 392.498 545.009 389.862 546.008 386.31C548.415 377.745 551.854 370.203 558.405 363.93C562.537 359.974 566.535 359.558 569.05 364.684C570.48 367.597 570.097 371.356 570.847 374.663C571.241 376.399 572.181 379.326 573.109 379.421C580.735 380.201 580.664 385.436 580.585 391.016C580.473 398.95 580.499 406.889 580.643 414.822C580.665 416.041 581.506 417.334 582.254 418.39C582.459 418.681 584.338 418.336 584.37 418.122C585.258 412.194 588.657 408.965 594.525 407.948C594.994 407.867 595.049 405.734 595.402 404.587C597.008 399.369 601.363 397.94 605.856 401.128C610.773 404.617 612.636 403.638 613.583 397.63C614.364 392.674 615.262 387.652 616.902 382.936C619.467 375.562 622.724 368.431 625.646 361.18C627.375 356.887 629.842 352.691 630.551 348.226C632.609 335.251 633.923 322.158 635.582 309.118C636.315 303.359 637.177 297.617 638.308 292.248C638.756 303.687 640.317 314.964 638.679 325.756C635.882 344.177 634.604 362.979 628.093 380.739C623.748 392.592 619.828 404.599 615.533 416.471C613.013 423.435 610.131 430.269 607.001 437.267C601.074 446.058 595.466 454.688 590.114 463.474C588.917 465.44 588.619 467.953 587.907 470.214C587.599 471.181 587.291 472.148 586.826 473.466C579.048 482.394 571.876 491.43 563.687 499.427C554.203 508.688 543.822 517.031 533.847 525.791C533.11 526.439 532.509 527.242 531.765 528.377ZM501.737 336.291C498.094 341.064 500.23 345.99 501.45 350.929C504.055 346.335 504.217 341.549 501.737 336.291Z" fill="#E2E2E2" fill-opacity="0.8"/>
<path d="M607.413 437.162C610.131 430.269 613.013 423.435 615.533 416.471C619.828 404.599 623.748 392.592 628.093 380.739C634.604 362.979 635.882 344.177 638.679 325.756C640.317 314.964 638.756 303.687 638.312 291.74C637.979 289.158 637.968 287.466 637.974 285.218C637.991 282.833 638.264 280.955 637.943 279.184C636.858 273.211 635.563 267.276 634.345 260.85C633.93 258.251 633.519 256.127 633.114 253.458C633.522 246.596 632.191 240.77 628.25 235.22C628.235 233.85 628.227 232.937 628.225 231.526C627.015 228.092 625.799 225.157 624.58 221.717C624.55 219.535 624.522 217.857 624.45 215.729C622.43 211.496 620.454 207.712 618.472 203.523C618.457 202.577 618.448 202.036 618.381 201.042C616.746 198.026 615.168 195.464 613.586 192.504C613.568 191.573 613.556 191.041 613.537 190.044C610.697 184.582 607.864 179.586 605.025 174.191C605.004 173.261 604.99 172.729 604.928 171.78C603.705 170.006 602.529 168.649 601.251 166.873C592.062 152.86 583.734 138.67 573.655 125.856C565.008 114.863 554.755 105.02 544.496 95.4321C529.903 81.7934 513.592 70.2897 496.088 60.6427C485.333 54.7156 474.192 49.4876 463.159 43.5694C462.313 42.2007 461.534 41.2083 460.755 40.2158C471.412 44.5636 482.47 48.1379 492.646 53.4124C517.474 66.2823 539.767 82.9163 559.25 102.939C574.824 118.944 588.923 136.318 600.654 155.397C615.244 179.125 627.793 203.981 634.306 231.144C638.489 248.588 641.412 266.557 642.605 284.444C644.666 315.338 642.609 346.211 634.09 376.165C629.842 391.103 623.99 405.611 618.353 420.116C615.596 427.208 611.671 433.847 607.86 440.34C607.434 439.047 607.423 438.104 607.413 437.162Z" fill="#F1F1F1" fill-opacity="0.8"/>
<path d="M460.484 39.9016C461.534 41.2082 462.313 42.2006 462.88 43.8378C460.006 43.8952 457.342 43.3078 454.603 42.286C445.61 38.893 436.691 35.9343 427.368 32.9745C426.421 32.9703 425.88 32.9671 425.339 32.964C423.419 31.7747 421.635 29.9274 419.557 29.4955C391.662 23.6985 363.6 19.3444 334.947 20.7271C333.166 20.813 331.36 20.3859 329.178 19.8721C340.694 19.5422 352.598 19.4798 364.501 19.5456C386.523 19.6674 408.03 23.5129 429.17 29.2904C439.671 32.1605 449.875 36.1205 460.484 39.9016Z" fill="#E8E8E8"/>
<path d="M324.567 19.5496C319.557 21.1744 314.109 23.5463 308.45 24.2698C296.064 25.8533 283.795 27.1492 272.316 32.8603C266.685 35.6617 260.317 37.1281 254.139 38.5892C252.479 38.9816 250.291 37.1385 248.25 35.9156C255.878 33.4308 263.619 31.4104 271.32 29.2502C275.546 28.065 279.657 26.4539 283.908 25.3816C288.389 24.2511 292.975 23.5335 297.882 22.3257C306.843 21.1936 315.437 20.3713 324.567 19.5496Z" fill="#E8E8E8"/>
<path d="M607.001 437.267C607.423 438.104 607.434 439.047 607.454 440.462C603.744 452.227 596.594 461.282 588.263 470.007C588.619 467.953 588.917 465.44 590.114 463.474C595.466 454.688 601.074 446.058 607.001 437.267Z" fill="#E8E8E8" fill-opacity="0.8"/>
<path d="M327.455 19.3647C327.372 19.5357 327.158 19.537 326.622 19.5361C326.643 19.4209 326.984 19.308 327.455 19.3647Z" fill="#E8E8E8"/>
<path d="M163.372 85.6588C168.901 87.3778 171.877 82.9608 175.768 81.2281C178.643 79.9481 181.768 76.7427 184.116 77.2834C189.103 78.4322 196.444 76.9887 197.354 85.6027C197.498 86.9617 200.882 88.5347 202.989 88.9917C205.713 89.5825 208.752 88.7231 211.476 89.3132C213.236 89.6944 215.857 91.393 216.046 92.7797C216.742 97.8793 219.643 99.1541 224.105 98.933C226.339 98.8224 228.752 98.4091 230.773 99.0748C232.679 99.7025 235.344 101.351 235.635 102.927C236.514 107.677 239.238 108.867 243.418 108.699C245.654 108.608 248.102 108.128 250.079 108.849C252.106 109.588 254.73 111.28 255.24 113.08C256.541 117.666 258.725 118.773 263.276 117.801C269.608 116.449 276.092 115.813 282.511 114.87C282.702 115.389 282.892 115.909 283.083 116.428C281.299 117.5 279.209 118.279 277.822 119.73C276.543 121.067 275.329 123.158 275.406 124.856C275.458 125.991 277.695 127.69 279.174 127.969C283.458 128.778 284.666 131.284 284.912 135.266C285.158 139.238 287.554 140.806 291.681 139.993C296.197 139.103 300.784 138.521 305.364 138.019C312.58 137.227 319.809 136.531 327.047 135.984C328.771 135.853 331.189 135.839 332.197 136.853C336.532 141.213 341.852 140.422 347.079 140.432C352.169 140.441 357.344 139.838 362.332 140.553C374.063 142.235 386.176 143.211 397.204 147.104C403.658 149.382 412.277 153.231 412.113 163.273C412.107 163.651 412.344 164.355 412.511 164.369C420.788 165.018 420.717 175.469 428.362 177.619C431.561 178.519 433.11 185.624 436.239 186.354C443.091 187.951 440.879 192.495 441.16 196.289C441.444 200.133 441.337 204.018 441.193 207.878C441.023 212.458 441.907 215.84 447.478 216.422C448.766 216.557 450.489 218.915 450.811 220.495C451.37 223.232 451.04 226.16 450.995 229.007C450.935 232.785 452.456 234.833 456.368 235.899C458.164 236.388 460.393 239.115 460.57 241.001C461.118 246.849 460.863 252.782 460.748 258.679C460.676 262.401 461.398 264.839 465.944 265.219C467.581 265.357 469.293 267.769 470.453 269.491C471.52 271.076 472.294 273.089 472.477 274.982C472.779 278.106 473.474 281.753 472.235 284.33C470.437 288.07 470.427 290.74 472.222 294.484C473.461 297.068 473.593 301.19 472.371 303.74C469.533 309.662 470.167 311.86 476.286 314.033C477.984 314.637 480.048 317.234 480.003 318.863C479.959 320.48 477.756 322.827 475.997 323.459C470.631 325.389 469.535 327.9 470.551 337.545C471.072 342.493 474.232 343.3 478.297 343.159C480.331 343.089 482.371 343.209 484.404 343.139C487.649 343.026 489.475 343.968 490.38 347.637C490.892 349.71 493.613 351.89 495.832 352.745C499.581 354.189 501.997 359.127 498.755 361.247C492.585 365.282 493.909 370.899 493.788 376.411C493.709 380.016 494.443 383.69 489.614 385.452C488.414 385.89 487.803 389.257 487.768 391.292C487.693 395.642 487.916 399.777 483.481 402.56C482.381 403.25 482.132 405.371 481.611 406.875C481.284 407.82 481.432 409.549 480.939 409.724C473.997 412.187 474.584 420.174 469.909 424.493C466.345 427.784 464.867 433.252 461.494 436.845C456.136 442.554 449.854 447.387 444.194 452.829C441.046 455.855 437.993 459.127 435.659 462.774C434.737 464.214 435.623 467.044 436.168 469.115C436.672 471.03 437.569 472.963 438.754 474.544C439.964 476.157 441.527 478.071 443.302 478.582C447.276 479.725 450.477 480.924 451.201 485.743C451.42 487.194 453.461 489.278 454.89 489.477C459.659 490.142 460.959 492.87 460.795 497.099C460.7 499.536 460.333 502.101 460.94 504.382C461.411 506.154 463.039 508.752 464.432 508.942C469.543 509.64 470.801 512.558 470.573 517.006C470.469 519.035 470.532 521.074 470.572 523.108C470.592 524.12 470.554 525.959 470.839 526.02C478.023 527.541 479.192 535.825 485.214 538.672C487.025 539.528 489.718 541.346 489.722 542.729C489.742 550.772 494.196 551.141 500.679 549.56C493.331 554.494 485.513 559.445 477.643 564.313C474.713 566.125 471.662 567.742 468.403 569.736C457.032 573.931 446.106 578.505 434.772 581.573C420.705 585.381 406.3 587.944 391.534 591.163C371.014 591.765 350.999 592.229 330.987 592.755C327.762 592.84 324.545 593.199 320.606 593.1C319.194 592.532 318.501 592.296 317.666 591.643C314.589 590.357 311.661 589.462 308.718 588.622C304.409 587.392 300.088 586.202 295.895 584.548C297.829 583.72 299.784 582.697 301.428 583.063C309.852 584.938 318.24 587.011 326.549 589.344C330.843 590.55 332.865 588.82 333.336 584.953C333.751 581.539 333.667 578.054 333.649 574.602C333.63 570.849 335.028 568.73 338.958 567.642C340.774 567.139 342.642 564.574 343.259 562.567C344.002 560.149 343.347 557.326 343.465 554.686C343.63 550.991 341.753 549.901 338.607 547.838C333.11 544.233 328.323 538.921 324.271 533.611C322.591 531.409 321.931 529.289 318.863 528.274C317.005 527.66 315.824 525.002 314.339 523.262C316.064 521.842 317.778 520.41 319.516 519.006C320.942 517.853 323.246 516.99 323.679 515.552C325.063 510.964 327.534 510.488 331.98 511.09C338.48 511.971 345.164 511.906 351.743 511.626C355.431 511.469 359.048 509.97 362.731 509.25C367.685 508.282 372.718 507.678 377.632 506.55C381.734 505.608 385.815 504.382 389.697 502.777C391.219 502.148 393.427 499.786 393.154 498.835C392.244 495.668 390.809 490.579 388.76 490.154C377.136 487.747 365.318 486.027 353.487 484.923C330.062 482.737 307.653 476.739 286.102 467.619C277.4 463.936 268.867 459.532 260.956 454.385C250.302 447.453 239.565 440.305 230.274 431.725C221.409 423.539 214.229 413.498 206.551 404.076C202.081 398.589 196.735 393.264 194.147 386.906C187.691 371.041 180.898 355.39 177.734 338.123C173.885 317.121 172.786 296.352 174.883 275.286C175.562 268.466 176.082 261.424 178.227 255.001C181.987 243.743 187.657 233.109 191.235 221.805C196.52 205.107 208.53 192.66 217.2 178.127C223.242 168 233.931 160.046 231.084 145.412C229.566 145.93 227.923 146.366 226.381 147.035C210.688 153.844 199.031 165.699 187.943 178.154C183.541 183.098 179.786 188.615 175.671 193.819C173.196 196.949 170.263 199.766 168.122 203.099C164.528 208.695 161.359 214.566 158.093 220.367C156.231 223.674 154.678 227.16 152.706 230.396C151.341 232.636 149.882 235.413 147.747 236.399C146.129 237.145 142.182 236.091 141.415 234.677C140.265 232.56 140.348 229.234 141.07 226.762C142.361 222.342 144.829 218.267 146.158 213.854C146.673 212.14 145.69 208.263 144.954 208.148C135.814 206.718 136.778 199.95 136.931 193.67C137.009 190.48 136.289 188.744 132.828 187.414C130.435 186.495 128.414 183.271 127.358 180.625C126.443 178.334 127.574 175.293 126.935 172.806C126.518 171.181 124.76 169.036 123.249 168.697C113.573 166.522 106.122 170.429 101.015 178.479C97.9195 183.358 95.7132 188.802 93.1171 193.997C90.5347 199.165 89.1387 205.644 85.1407 209.233C77.1964 216.366 79.8106 226.748 75.2061 234.797C71.7529 240.834 70.1473 247.922 67.6335 254.509C67.4858 254.896 66.5723 254.992 65.6994 255.224C65.1731 255.224 64.9626 255.225 64.7671 254.771C64.7918 253.407 64.8016 252.498 65.2482 251.451C66.1867 248.946 66.6885 246.58 67.4939 243.889C74.1151 224.655 80.4327 205.746 87.1191 186.643C89.1978 184.233 91.1549 182.162 92.563 179.77C95.0063 175.618 96.6912 170.975 99.4348 167.055C107.495 155.54 115.874 144.244 124.233 132.941C126.41 129.997 124.916 129.53 122.315 129.437C122.413 128.846 122.301 128.071 122.638 127.692C133.854 115.066 145.113 102.478 156.666 89.5696C158.984 88.1235 161.002 86.9922 163.372 85.6588Z" fill="#E8E8E8" fill-opacity="0.8"/>
<path d="M122.043 129.746C124.916 129.53 126.41 129.996 124.233 132.941C115.874 144.244 107.495 155.54 99.4348 167.055C96.6912 170.975 95.0063 175.618 92.563 179.77C91.1549 182.162 89.1978 184.233 86.9277 186.35C86.924 184.04 87.4803 181.827 88.0366 179.614C92.9472 170.894 97.8577 162.175 102.959 153.035C106.154 148.502 109.158 144.389 112.602 139.685C113.343 138.728 113.644 138.364 113.945 137.999C116.553 135.351 119.162 132.703 122.043 129.746Z" fill="#E2E2E2" fill-opacity="0.8"/>
<path d="M113.618 138.163C113.644 138.364 113.343 138.728 112.749 139.299C112.734 139.113 113.012 138.72 113.618 138.163Z" fill="#949494" fill-opacity="0.8"/>
<path d="M501.587 549.534C503.448 542.835 508.526 539.901 515.598 539.592C511.264 543.078 506.639 546.274 501.587 549.534Z" fill="#E8E8E8" fill-opacity="0.8"/>
<path d="M454.679 42.7205C457.342 43.3079 460.006 43.8953 462.947 44.2141C474.192 49.4876 485.333 54.7156 496.088 60.6427C513.592 70.2897 529.903 81.7934 544.496 95.4321C554.755 105.02 565.008 114.863 573.654 125.856C583.734 138.67 592.062 152.86 600.987 167.129C602.209 169.27 603.592 170.734 604.976 172.198C604.99 172.729 605.004 173.261 605.084 174.644C605.971 177.944 606.436 180.598 607.704 182.787C609.308 185.559 611.567 187.952 613.543 190.509C613.556 191.041 613.568 191.573 613.635 192.952C615.273 196.364 616.857 198.93 618.44 201.495C618.448 202.036 618.457 202.577 618.163 203.84C617.193 210.077 619.085 214.131 624.495 216.179C624.522 217.857 624.55 219.535 624.57 222.218C625.782 226.157 627 229.09 628.219 232.024C628.227 232.937 628.235 233.85 627.937 235.551C628.902 242.001 630.148 247.671 631.506 253.314C631.587 253.653 632.553 253.779 633.108 254.004C633.519 256.127 633.93 258.251 634.026 261.209C633.975 268.997 634.102 275.96 634.655 282.89C634.738 283.932 636.807 284.816 637.957 285.774C637.968 287.466 637.979 289.158 637.985 291.359C637.177 297.617 636.315 303.359 635.582 309.118C633.923 322.158 632.609 335.251 630.551 348.226C629.842 352.692 627.375 356.887 625.646 361.18C622.724 368.431 619.467 375.563 616.902 382.936C615.262 387.652 614.364 392.674 613.583 397.63C612.636 403.638 610.773 404.617 605.856 401.128C601.363 397.94 597.008 399.369 595.402 404.587C595.049 405.734 594.994 407.867 594.525 407.948C588.657 408.965 585.258 412.194 584.37 418.122C584.338 418.336 582.459 418.681 582.254 418.391C581.506 417.334 580.665 416.041 580.643 414.822C580.499 406.889 580.473 398.95 580.585 391.016C580.664 385.436 580.735 380.201 573.109 379.421C572.181 379.326 571.241 376.399 570.847 374.663C570.097 371.356 570.48 367.597 569.05 364.684C566.535 359.558 562.537 359.974 558.405 363.931C551.854 370.203 548.415 377.746 546.008 386.311C545.009 389.862 541.083 392.498 538.938 395.839C528.096 412.729 516.517 429.157 500.984 441.995C491.21 450.074 480.682 457.628 466.935 461.753C467.444 459.103 467.319 457.025 468.207 455.561C475.776 443.078 483.966 430.952 491.099 418.232C497.919 406.07 503.84 393.394 509.871 380.808C513.077 374.117 516.435 367.34 518.349 360.233C520.375 352.709 520.711 344.737 521.887 336.976C524.287 321.14 521.776 305.628 519.867 289.917C518.041 274.885 513.883 260.619 508.276 246.915C500.098 226.93 488.514 208.81 475.126 191.682C464.366 177.917 450.991 167.08 437.479 156.8C423.614 146.251 407.202 139.264 390.279 134.182C376.31 129.987 362.353 125.75 348.359 121.637C346.891 121.205 345.206 121.401 343.629 121.474C342.427 121.529 341.156 122.228 340.055 121.992C332.391 120.349 324.742 118.621 317.148 116.683C316.074 116.409 314.4 114.459 314.61 113.964C315.168 112.648 316.427 111.075 317.718 110.714C325.105 108.647 332.511 106.499 340.048 105.153C349.398 103.484 358.901 102.691 368.302 101.281C373.075 100.565 377.731 99.0109 382.512 98.4262C386.052 97.9932 389.738 98.8305 393.301 98.4896C395.449 98.2841 397.484 96.9065 399.57 96.0556C397.872 94.5698 396.307 92.0244 394.451 91.7921C388.295 91.0212 382.034 91.1271 380.077 83.3514C379.91 82.6908 379.044 81.8546 378.38 81.7234C368.601 79.7914 365.387 71.3537 360.814 64.2413C360.283 63.4159 359.543 62.6396 358.729 62.0943C347.744 54.7333 344.516 40.9969 352.966 31.7009C355.852 28.5255 362.465 28.4393 367.485 27.6031C370.441 27.1108 373.621 27.8383 376.686 28.1543C390.132 29.5402 403.571 30.9853 417.016 32.3856C419.43 32.6371 421.856 32.7787 424.808 32.9675C425.88 32.9672 426.421 32.9703 427.471 33.3938C430.196 35.033 432.284 36.6786 434.653 37.3893C441.266 39.3735 447.995 40.9706 454.679 42.7205ZM547.517 355.686C547.924 354.346 548.331 353.006 549.619 351.459C550.558 349.112 551.994 346.839 552.354 344.407C554.66 328.866 557.432 313.513 556.473 297.49C555.494 281.109 554.024 265.069 549.195 249.328C543.321 230.182 534.422 212.536 524.442 195.253C514.793 178.544 501.643 165.022 487.329 152.571C465.486 133.57 439.276 122.402 412.227 113.36C402.969 110.265 392.861 109.147 383.047 108.454C375.32 107.908 367.44 109.309 359.651 110.08C358.356 110.208 357.181 111.536 354.698 113.096C363.85 116.397 371.701 118.913 379.299 122.041C392.189 127.346 405.442 132.092 417.597 138.786C436.224 149.044 454.186 160.654 468.537 176.724C477.124 186.341 485.619 196.15 493.055 206.65C498.984 215.022 503.471 224.456 508.182 233.631C512.224 241.504 516.65 249.392 519.138 257.795C522.152 267.976 524.509 278.651 524.997 289.211C525.832 307.254 525.677 325.416 524.576 343.445C523.995 352.956 521.332 362.566 518.199 371.645C513 386.711 506.888 401.478 500.711 416.183C497.539 423.736 493.396 430.882 489.692 438.212C490.187 438.78 490.682 439.348 491.178 439.916C493.841 439.029 497.223 438.882 499.04 437.123C506.091 430.294 513.695 423.658 519.112 415.618C525.581 406.016 530.02 395.049 535.344 383.864C535.352 383.325 535.361 382.787 536.305 382.236C538.349 380.9 541.193 380.018 542.263 378.131C544.212 374.694 545.417 370.735 546.353 366.854C547.155 363.527 547.148 360.006 547.517 355.686Z" fill="#DADADA" fill-opacity="0.8"/>
<path d="M502.198 336.448C504.217 341.549 504.055 346.335 501.45 350.929C500.23 345.99 498.094 341.064 502.198 336.448Z" fill="#E8E8E8" fill-opacity="0.8"/>
<path d="M637.974 285.218C636.807 284.816 634.738 283.932 634.655 282.89C634.102 275.96 633.975 268.997 634.029 261.685C635.563 267.276 636.858 273.211 637.943 279.184C638.264 280.955 637.991 282.833 637.974 285.218Z" fill="#E2E2E2" fill-opacity="0.8"/>
<path d="M633.114 253.458C632.553 253.779 631.587 253.653 631.506 253.314C630.148 247.671 628.902 242.001 627.943 236.007C632.191 240.77 633.522 246.596 633.114 253.458Z" fill="#E2E2E2" fill-opacity="0.8"/>
<path d="M613.537 190.044C611.567 187.952 609.308 185.559 607.704 182.787C606.436 180.598 605.971 177.944 605.091 175.043C607.864 179.586 610.697 184.582 613.537 190.044Z" fill="#E2E2E2" fill-opacity="0.8"/>
<path d="M624.45 215.729C619.085 214.13 617.193 210.076 618.169 204.245C620.454 207.712 622.43 211.496 624.45 215.729Z" fill="#E2E2E2" fill-opacity="0.8"/>
<path d="M628.225 231.526C627 229.09 625.782 226.157 624.573 222.722C625.799 225.157 627.015 228.092 628.225 231.526Z" fill="#E2E2E2" fill-opacity="0.8"/>
<path d="M618.381 201.041C616.857 198.929 615.273 196.364 613.641 193.35C615.168 195.464 616.746 198.026 618.381 201.041Z" fill="#E2E2E2" fill-opacity="0.8"/>
<path d="M604.928 171.78C603.592 170.734 602.209 169.27 601.089 167.549C602.529 168.649 603.705 170.006 604.928 171.78Z" fill="#E2E2E2" fill-opacity="0.8"/>
<path d="M454.603 42.286C447.995 40.9706 441.266 39.3735 434.653 37.3893C432.284 36.6786 430.196 35.033 427.877 33.3949C436.691 35.9343 445.61 38.893 454.603 42.286Z" fill="#E2E2E2"/>
<path d="M157.467 520.324C157.143 520.174 156.858 519.969 156.428 519.058C155.363 517.867 154.485 517.327 153.606 516.786C153.265 516.655 152.981 516.446 152.816 515.54C154.141 508.865 149.873 509.764 146.344 509.734C146.344 509.734 146.237 509.705 146.324 509.198C146.001 507.604 145.86 506.277 145.139 505.466C137.217 496.556 128.558 488.213 121.395 478.739C114.009 468.97 107.498 458.425 101.608 447.67C93.3042 432.509 85.3709 417.088 78.3825 401.29C74.9057 393.431 74.6857 384.175 71.5426 376.115C67.9554 366.917 65.4302 357.836 65.7808 347.912C65.8356 346.363 63.5715 344.732 62.3821 342.735C62.3852 341.793 62.386 341.254 62.6896 340.346C62.7646 333.559 62.2635 327.137 62.3643 320.724C62.5998 305.757 63.062 290.791 63.5735 275.83C63.7113 271.799 64.3546 267.786 65.1611 263.689C67.2856 262.171 69.9613 260.805 65.9537 258.434C65.9819 257.058 65.9985 256.141 66.0152 255.223C66.5723 254.992 67.4858 254.896 67.6336 254.509C70.1473 247.922 71.7529 240.834 75.2062 234.797C79.8106 226.748 77.1964 216.366 85.1407 209.233C89.1387 205.644 90.5347 199.165 93.1171 193.997C95.7132 188.802 97.9195 183.358 101.015 178.479C106.122 170.429 113.573 166.522 123.249 168.697C124.76 169.036 126.518 171.181 126.935 172.806C127.574 175.293 126.443 178.334 127.358 180.625C128.414 183.271 130.435 186.495 132.828 187.414C136.289 188.744 137.009 190.48 136.931 193.67C136.778 199.95 135.814 206.718 144.954 208.148C145.69 208.263 146.673 212.141 146.158 213.854C144.829 218.267 142.361 222.342 141.07 226.762C140.348 229.234 140.265 232.56 141.415 234.677C142.182 236.091 146.129 237.145 147.747 236.399C149.882 235.413 151.341 232.636 152.706 230.396C154.678 227.16 156.231 223.674 158.093 220.367C161.359 214.566 164.528 208.695 168.122 203.099C170.263 199.766 173.196 196.949 175.671 193.819C179.786 188.615 183.541 183.098 187.943 178.154C199.031 165.699 210.688 153.844 226.381 147.035C227.923 146.366 229.566 145.93 231.084 145.412C233.931 160.046 223.242 168 217.2 178.127C208.53 192.66 196.52 205.107 191.235 221.805C187.657 233.109 181.987 243.743 178.227 255.001C176.082 261.424 175.562 268.466 174.883 275.286C172.786 296.352 173.885 317.121 177.734 338.123C180.898 355.39 187.691 371.041 194.147 386.906C196.735 393.264 202.081 398.589 206.551 404.076C214.229 413.499 221.409 423.539 230.274 431.725C239.565 440.305 250.302 447.453 260.956 454.385C268.867 459.532 277.4 463.936 286.102 467.619C307.653 476.739 330.062 482.738 353.487 484.923C365.318 486.027 377.136 487.747 388.76 490.154C390.809 490.579 392.245 495.668 393.154 498.835C393.427 499.786 391.219 502.148 389.697 502.777C385.815 504.382 381.734 505.609 377.632 506.55C372.718 507.679 367.685 508.282 362.731 509.25C359.048 509.97 355.431 511.469 351.743 511.626C345.164 511.906 338.48 511.971 331.98 511.09C327.534 510.488 325.063 510.964 323.679 515.552C323.246 516.99 320.942 517.853 319.516 519.006C317.778 520.41 316.064 521.842 314.339 523.262C315.824 525.002 317.005 527.66 318.863 528.274C321.931 529.289 322.59 531.409 324.271 533.611C328.323 538.921 333.11 544.233 338.607 547.838C341.753 549.901 343.63 550.991 343.465 554.686C343.347 557.326 344.002 560.149 343.259 562.567C342.642 564.574 340.774 567.139 338.958 567.642C335.028 568.73 333.63 570.849 333.649 574.602C333.667 578.054 333.751 581.539 333.336 584.953C332.865 588.82 330.843 590.55 326.549 589.344C318.24 587.011 309.852 584.938 301.428 583.063C299.784 582.697 297.829 583.72 295.407 584.537C293.493 584.963 292.189 584.953 290.835 584.606C290.002 584.1 289.22 583.931 287.95 583.681C275.684 580.258 263.593 577.731 252.207 573.367C238.153 567.98 224.643 561.157 210.976 554.787C195.422 547.538 182.125 536.963 168.911 526.216C165.654 523.567 161.311 522.252 157.467 520.324Z" fill="#F1F1F1" fill-opacity="0.8"/>
<path d="M290.886 584.944C292.189 584.953 293.493 584.963 295.284 584.984C300.088 586.202 304.409 587.392 308.718 588.622C311.661 589.462 314.589 590.357 317.666 591.643C306.068 590.478 294.13 589.756 282.639 587.1C268.213 583.766 253.748 579.865 240.024 574.393C214.256 564.12 191.06 549.202 169.712 531.484C165.657 528.119 161.767 524.553 157.634 520.702C161.311 522.252 165.654 523.567 168.911 526.215C182.125 536.963 195.422 547.538 210.976 554.787C224.643 561.157 238.153 567.98 252.207 573.366C263.593 577.73 275.684 580.258 288.181 583.949C289.562 584.513 290.224 584.728 290.886 584.944Z" fill="#DADADA" fill-opacity="0.8"/>
<path d="M146.492 510.09C149.873 509.763 154.141 508.865 152.679 515.31C150.534 513.949 148.587 512.198 146.492 510.09Z" fill="#DADADA" fill-opacity="0.8"/>
<path d="M153.754 517.141C154.485 517.327 155.363 517.867 156.277 518.841C155.509 518.681 154.706 518.089 153.754 517.141Z" fill="#DADADA" fill-opacity="0.8"/>
<path d="M535.338 384.673C530.02 395.049 525.581 406.016 519.112 415.618C513.695 423.658 506.091 430.294 499.04 437.122C497.223 438.882 493.841 439.029 491.178 439.916C490.682 439.348 490.187 438.78 489.692 438.212C493.396 430.882 497.539 423.736 500.712 416.183C506.888 401.478 513 386.711 518.199 371.645C521.332 362.566 523.995 352.956 524.576 343.445C525.677 325.416 525.832 307.254 524.998 289.211C524.509 278.651 522.152 267.976 519.138 257.795C516.65 249.392 512.224 241.504 508.182 233.631C503.471 224.456 498.984 215.022 493.055 206.65C485.619 196.15 477.124 186.341 468.537 176.724C454.186 160.654 436.224 149.044 417.597 138.786C405.442 132.092 392.189 127.346 379.299 122.041C371.701 118.913 363.85 116.397 354.698 113.096C357.181 111.536 358.356 110.208 359.651 110.08C367.44 109.309 375.32 107.908 383.047 108.454C392.861 109.147 402.969 110.265 412.227 113.36C439.276 122.402 465.486 133.57 487.329 152.571C501.643 165.022 514.793 178.544 524.442 195.253C534.423 212.536 543.321 230.182 549.195 249.328C554.024 265.068 555.494 281.109 556.474 297.49C557.432 313.513 554.66 328.866 552.354 344.407C551.994 346.839 550.558 349.112 549.185 351.022C547.538 339.631 549.106 328.923 550.897 318.118C552.144 310.594 552.336 302.769 551.945 295.132C551.45 285.468 549.886 275.859 548.781 266.227C548.62 264.823 548.684 263.341 548.243 262.03C544.901 252.105 542.122 241.921 537.892 232.382C531.681 218.374 524.933 204.538 517.363 191.225C513.797 184.953 507.869 179.992 502.864 174.573C496.411 167.589 490.445 159.965 483.137 154.002C469.094 142.543 454.068 132.351 436.364 127.116C434.059 126.434 431.412 126.911 428.923 126.851C429.67 129.399 430.29 131.995 431.233 134.468C431.551 135.303 432.646 135.88 433.453 136.486C440.024 141.422 446.284 146.872 453.27 151.132C463.174 157.172 469.752 166.191 476.826 174.864C482.565 181.899 488.653 188.68 493.968 196.02C499.501 203.662 504.92 211.515 509.234 219.872C513.698 228.52 517.351 237.698 520.323 246.976C524.968 261.473 530.474 276.024 532.413 290.968C534.506 307.088 532.963 323.686 532.901 340.075C532.885 344.32 533.135 348.728 532.129 352.779C528.669 366.702 524.658 380.487 520.998 394.362C520.543 396.088 520.936 398.036 520.936 401.741C524.142 398.695 526.072 397.232 527.531 395.394C530.277 391.934 532.751 388.259 535.338 384.673Z" fill="#D1D1D1" fill-opacity="0.8"/>
<path d="M535.341 384.269C532.751 388.259 530.277 391.934 527.531 395.394C526.072 397.232 524.142 398.695 520.936 401.741C520.936 398.036 520.543 396.088 520.998 394.362C524.658 380.487 528.669 366.702 532.129 352.779C533.135 348.728 532.885 344.32 532.901 340.075C532.963 323.686 534.506 307.088 532.414 290.968C530.474 276.024 524.968 261.473 520.323 246.976C517.351 237.698 513.698 228.52 509.234 219.872C504.92 211.515 499.501 203.662 493.968 196.02C488.653 188.68 482.565 181.899 476.826 174.864C469.752 166.191 463.174 157.172 453.27 151.132C446.284 146.872 440.024 141.422 433.453 136.486C432.646 135.88 431.551 135.303 431.233 134.468C430.29 131.995 429.67 129.399 428.923 126.851C431.412 126.911 434.059 126.434 436.364 127.116C454.068 132.351 469.094 142.543 483.137 154.002C490.445 159.965 496.411 167.589 502.864 174.573C507.869 179.992 513.797 184.953 517.363 191.225C524.933 204.538 531.681 218.373 537.892 232.382C542.122 241.921 544.901 252.105 548.243 262.03C548.684 263.341 548.62 264.823 548.781 266.227C549.886 275.859 551.45 285.468 551.945 295.132C552.336 302.769 552.144 310.594 550.897 318.118C549.106 328.923 547.538 339.631 548.745 351.125C548.331 353.006 547.924 354.346 547.135 356.366C542.958 365.446 539.164 373.847 535.37 382.248C535.361 382.786 535.352 383.325 535.341 384.269Z" fill="#C4C4C2" fill-opacity="0.8"/>
<path d="M535.837 382.242C539.164 373.847 542.958 365.446 547.126 356.807C547.148 360.005 547.155 363.527 546.353 366.854C545.417 370.735 544.212 374.694 542.263 378.131C541.193 380.018 538.349 380.9 535.837 382.242Z" fill="#D1D1D1" fill-opacity="0.8"/>
<path d="M65.1611 263.689C64.9629 262.349 65.1599 260.934 65.6496 259.206C69.9613 260.805 67.2856 262.171 65.1611 263.689Z" fill="#E8E8E8" fill-opacity="0.8"/>
<path d="M290.835 584.606C290.224 584.729 289.562 584.514 288.669 584.031C289.22 583.931 290.002 584.1 290.835 584.606Z" fill="#E8E8E8" fill-opacity="0.8"/>
</svg>
